<?xml version="1.0" encoding="utf-8"?>
<!-- Generator: Adobe Illustrator 16.0.0, SVG Export Plug-In . SVG Version: 6.00 Build 0)  -->
<!DOCTYPE svg PUBLIC "-//W3C//DTD SVG 1.1//EN" "http://www.w3.org/Graphics/SVG/1.1/DTD/svg11.dtd">
<svg version="1.1" id="Layer_1" xmlns="http://www.w3.org/2000/svg" xmlns:xlink="http://www.w3.org/1999/xlink" x="0px" y="0px"
	 width="18px" height="17px" viewBox="0 0 18 17" enable-background="new 0 0 18 17" xml:space="preserve">
<g>
	<rect x="8" y="2" fill="none" width="2" height="2"/>
	<polygon fill="none" points="7,9 8,9 8,10 8,15 10,15 10,10 10,9 11,9 11,7 7,7 	"/>
	<path fill="#FFFFFF" d="M11,5V4V2V1h-1H8H7v1v2v1h3H11z M8,4V2h2v2H8z"/>
	<path fill="#FFFFFF" d="M11,6H7H6v1v2v1h1v5v1h1h3v-1v-5h1V9V7V6H11z M11,9h-1v1v5H8v-5V9H7V7h4V9z"/>
</g>
<g>
</g>
<g>
</g>
<g>
</g>
<g>
</g>
<g>
</g>
<g>
</g>
</svg>
