<?xml version="1.0" encoding="utf-8"?>
<!-- Generator: Adobe Illustrator 16.0.0, SVG Export Plug-In . SVG Version: 6.00 Build 0)  -->
<!DOCTYPE svg PUBLIC "-//W3C//DTD SVG 1.1//EN" "http://www.w3.org/Graphics/SVG/1.1/DTD/svg11.dtd">
<svg version="1.1" id="Layer_1" xmlns="http://www.w3.org/2000/svg" xmlns:xlink="http://www.w3.org/1999/xlink" x="0px" y="0px"
	 width="18px" height="17px" viewBox="0 0 18 17" enable-background="new 0 0 18 17" xml:space="preserve">
<g>
	<rect x="6" y="8" fill="none" width="2" height="7"/>
	<rect x="3" y="8" fill="none" width="2" height="7"/>
	<rect x="9" y="8" fill="none" width="2" height="7"/>
	<rect x="12" y="8" fill="none" width="2" height="7"/>
	<path fill="#FFFFFF" d="M16,7h-1h-1V6h-1v1h-1h-1H9H8H6H5H4V6H3v1H2H1v1h1v7v1h1h2h1h2h1h2h1h2h1v-1V8h1V7z M3,15V8h2v7H3z M6,15V8
		h2v7H6z M9,15V8h2v7H9z M14,15h-2V8h2V15z"/>
	<rect x="7" y="1" fill="#FFFFFF" width="1" height="2"/>
	<rect x="9" y="1" fill="#FFFFFF" width="1" height="2"/>
	<rect x="6" y="3" fill="#FFFFFF" width="1" height="1"/>
	<rect x="5" y="4" fill="#FFFFFF" width="1" height="1"/>
	<rect x="12" y="5" fill="#FFFFFF" width="1" height="1"/>
	<rect x="11" y="4" fill="#FFFFFF" width="1" height="1"/>
	<rect x="10" y="3" fill="#FFFFFF" width="1" height="1"/>
	<rect x="4" y="5" fill="#FFFFFF" width="1" height="1"/>
</g>
<g>
</g>
<g>
</g>
<g>
</g>
<g>
</g>
<g>
</g>
<g>
</g>
</svg>
