<?xml version="1.0" encoding="utf-8"?>
<!-- Generator: Adobe Illustrator 16.0.0, SVG Export Plug-In . SVG Version: 6.00 Build 0)  -->
<!DOCTYPE svg PUBLIC "-//W3C//DTD SVG 1.1//EN" "http://www.w3.org/Graphics/SVG/1.1/DTD/svg11.dtd">
<svg version="1.1" id="Layer_1" xmlns="http://www.w3.org/2000/svg" xmlns:xlink="http://www.w3.org/1999/xlink" x="0px" y="0px"
	 width="18px" height="17px" viewBox="0 0 18 17" enable-background="new 0 0 18 17" xml:space="preserve">
<g>
	<path fill="none" d="M12,7h-1V2H2v13h14V7H12z M5,4h5v1H5V4z M5,6h5v1H5V6z M4,13H3v-1h1V13z M4,11H3v-1h1V11z M4,9H3V8h1V9z M4,7
		H3V6h1V7z M4,5H3V4h1V5z M15,13H5v-1h10V13z M15,11H5v-1h10V11z M5,9V8h10v1H5z"/>
	<polygon fill="none" points="12,6 16,6 16,5 15,5 15,4 14,4 14,3 13,3 13,2 12,2 	"/>
	<rect x="13" y="2" fill="#FFFFFF" width="1" height="1"/>
	<rect x="14" y="3" fill="#FFFFFF" width="1" height="1"/>
	<rect x="15" y="4" fill="#FFFFFF" width="1" height="1"/>
	<path fill="#FFFFFF" d="M16,5v1h-4V2h1V1H2H1v15h1h14h1v-1V5H16z M2,15V2h9v5h1h4v8H2z"/>
	<rect x="3" y="12" fill="#FFFFFF" width="1" height="1"/>
	<rect x="3" y="10" fill="#FFFFFF" width="1" height="1"/>
	<rect x="3" y="8" fill="#FFFFFF" width="1" height="1"/>
	<rect x="3" y="6" fill="#FFFFFF" width="1" height="1"/>
	<rect x="3" y="4" fill="#FFFFFF" width="1" height="1"/>
	<rect x="5" y="4" fill="#FFFFFF" width="5" height="1"/>
	<rect x="5" y="6" fill="#FFFFFF" width="5" height="1"/>
	<rect x="5" y="8" fill="#FFFFFF" width="10" height="1"/>
	<rect x="5" y="10" fill="#FFFFFF" width="10" height="1"/>
	<rect x="5" y="12" fill="#FFFFFF" width="10" height="1"/>
</g>
<g>
</g>
<g>
</g>
<g>
</g>
<g>
</g>
<g>
</g>
<g>
</g>
</svg>
