<?xml version="1.0" encoding="utf-8"?>
<!-- Generator: Adobe Illustrator 16.0.0, SVG Export Plug-In . SVG Version: 6.00 Build 0)  -->
<!DOCTYPE svg PUBLIC "-//W3C//DTD SVG 1.1//EN" "http://www.w3.org/Graphics/SVG/1.1/DTD/svg11.dtd">
<svg version="1.1" id="Layer_1" xmlns="http://www.w3.org/2000/svg" xmlns:xlink="http://www.w3.org/1999/xlink" x="0px" y="0px"
	 width="18px" height="17px" viewBox="0 0 18 17" enable-background="new 0 0 18 17" xml:space="preserve">
<g>
	<path fill="none" d="M2,15h14V4H2V15z M3,5h12v1H3V5z M6,9V8h4v1H6z M9,10v1H8v-1H9z M10,10h3v1h-3V10z M3,8h2v1H3V8z M3,10h4v1H3
		V10z M15,13v1H3v-1H15z"/>
	<path fill="#FFFFFF" d="M16,3H2H1v1v11v1h1h14h1v-1V4V3H16z M16,15H2V4h14V15z"/>
	<rect x="3" y="5" fill="#FFFFFF" width="12" height="1"/>
	<rect x="3" y="8" fill="#FFFFFF" width="2" height="1"/>
	<rect x="6" y="8" fill="#FFFFFF" width="4" height="1"/>
	<rect x="3" y="10" fill="#FFFFFF" width="4" height="1"/>
	<rect x="8" y="10" fill="#FFFFFF" width="1" height="1"/>
	<rect x="10" y="10" fill="#FFFFFF" width="3" height="1"/>
	<rect x="3" y="13" fill="#FFFFFF" width="12" height="1"/>
</g>
<g>
</g>
<g>
</g>
<g>
</g>
<g>
</g>
<g>
</g>
<g>
</g>
</svg>
