<?xml version="1.0" encoding="utf-8"?>
<!-- Generator: Adobe Illustrator 16.0.0, SVG Export Plug-In . SVG Version: 6.00 Build 0)  -->
<!DOCTYPE svg PUBLIC "-//W3C//DTD SVG 1.1//EN" "http://www.w3.org/Graphics/SVG/1.1/DTD/svg11.dtd">
<svg version="1.1" id="Layer_1" xmlns="http://www.w3.org/2000/svg" xmlns:xlink="http://www.w3.org/1999/xlink" x="0px" y="0px"
	 width="18px" height="17px" viewBox="0 0 18 17" enable-background="new 0 0 18 17" xml:space="preserve">
<g>
	<polygon fill="none" points="12,6 16,6 16,5 15,5 15,4 14,4 14,3 13,3 13,2 12,2 	"/>
	<polygon fill="none" points="11,7 11,6 11,2 2,2 2,15 16,15 16,7 12,7 	"/>
	<path fill="#FFFFFF" d="M16,5v1h-4V2h1V1h-1h-1H2H1v1v13v1h1h14h1v-1V7V6V5H16z M16,15H2V2h9v4v1h1h4V15z"/>
	<rect x="13" y="2" fill="#FFFFFF" width="1" height="1"/>
	<rect x="14" y="3" fill="#FFFFFF" width="1" height="1"/>
	<rect x="15" y="4" fill="#FFFFFF" width="1" height="1"/>
</g>
<g>
</g>
<g>
</g>
<g>
</g>
<g>
</g>
<g>
</g>
<g>
</g>
</svg>
