<?xml version="1.0" encoding="utf-8"?>
<!-- Generator: Adobe Illustrator 16.0.0, SVG Export Plug-In . SVG Version: 6.00 Build 0)  -->
<!DOCTYPE svg PUBLIC "-//W3C//DTD SVG 1.1//EN" "http://www.w3.org/Graphics/SVG/1.1/DTD/svg11.dtd">
<svg version="1.1" id="Layer_1" xmlns="http://www.w3.org/2000/svg" xmlns:xlink="http://www.w3.org/1999/xlink" x="0px" y="0px"
	 width="18px" height="17px" viewBox="0 0 18 17" enable-background="new 0 0 18 17" xml:space="preserve">
<g>
	<polygon fill="none" points="11,4 10,4 7,4 6,4 6,3 4,3 4,15 13,15 13,3 11,3 	"/>
	<rect x="7" y="2" fill="none" width="3" height="1"/>
	<path fill="#FFFFFF" d="M13,2h-2V1h-1H7H6v1H4H3v1v12v1h1h9h1v-1V3V2H13z M10,2v1H7V2H10z M13,15H4V3h2v1h1h3h1V3h2V15z"/>
</g>
<g>
</g>
<g>
</g>
<g>
</g>
<g>
</g>
<g>
</g>
<g>
</g>
</svg>
