<?xml version="1.0" encoding="utf-8"?>
<!-- Generator: Adobe Illustrator 16.0.0, SVG Export Plug-In . SVG Version: 6.00 Build 0)  -->
<!DOCTYPE svg PUBLIC "-//W3C//DTD SVG 1.1//EN" "http://www.w3.org/Graphics/SVG/1.1/DTD/svg11.dtd">
<svg version="1.1" id="Layer_1" xmlns="http://www.w3.org/2000/svg" xmlns:xlink="http://www.w3.org/1999/xlink" x="0px" y="0px"
	 width="18px" height="17px" viewBox="0 0 18 17" enable-background="new 0 0 18 17" xml:space="preserve">
<g>
	<path fill="none" d="M2,2v3h1v1h1v1h1v1h1v7h5V8h1V7h1V6h1V5h1V2H2z M10,11H7v-1h3V11z M10,8H7V7h3V8z M12,5H5V4h7V5z"/>
	<polygon fill="#FFFFFF" points="15,1 2,1 1,1 1,2 1,5 2,5 2,2 15,2 15,5 16,5 16,2 16,1 	"/>
	<rect x="5" y="4" fill="#FFFFFF" width="7" height="1"/>
	<polygon fill="#FFFFFF" points="11,15 6,15 6,8 5,8 5,15 5,16 6,16 11,16 12,16 12,15 12,8 11,8 	"/>
	<rect x="7" y="7" fill="#FFFFFF" width="3" height="1"/>
	<rect x="7" y="10" fill="#FFFFFF" width="3" height="1"/>
	<rect x="2" y="5" fill="#FFFFFF" width="1" height="1"/>
	<rect x="4" y="7" fill="#FFFFFF" width="1" height="1"/>
	<rect x="3" y="6" fill="#FFFFFF" width="1" height="1"/>
	<rect x="12" y="7" fill="#FFFFFF" width="1" height="1"/>
	<rect x="13" y="6" fill="#FFFFFF" width="1" height="1"/>
	<rect x="14" y="5" fill="#FFFFFF" width="1" height="1"/>
</g>
<g>
</g>
<g>
</g>
<g>
</g>
<g>
</g>
<g>
</g>
<g>
</g>
</svg>
