<?xml version="1.0" encoding="utf-8"?>
<!-- Generator: Adobe Illustrator 16.0.0, SVG Export Plug-In . SVG Version: 6.00 Build 0)  -->
<!DOCTYPE svg PUBLIC "-//W3C//DTD SVG 1.1//EN" "http://www.w3.org/Graphics/SVG/1.1/DTD/svg11.dtd">
<svg version="1.1" id="Layer_1" xmlns="http://www.w3.org/2000/svg" xmlns:xlink="http://www.w3.org/1999/xlink" x="0px" y="0px"
	 width="18px" height="17px" viewBox="0 0 18 17" enable-background="new 0 0 18 17" xml:space="preserve">
<rect x="4" y="12" fill="#FFFFFF" width="1" height="1"/>
<rect x="5" y="11" fill="#FFFFFF" width="1" height="1"/>
<rect x="6" y="10" fill="#FFFFFF" width="1" height="1"/>
<rect x="7" y="9" fill="#FFFFFF" width="1" height="1"/>
<rect x="8" y="8" fill="#FFFFFF" width="1" height="1"/>
<rect x="9" y="7" fill="#FFFFFF" width="1" height="1"/>
<rect x="10" y="6" fill="#FFFFFF" width="1" height="1"/>
<rect x="11" y="5" fill="#FFFFFF" width="1" height="1"/>
<rect x="12" y="4" fill="#FFFFFF" width="1" height="1"/>
<rect x="11" y="1" fill="#FFFFFF" width="3" height="1"/>
<rect x="14" y="2" fill="#FFFFFF" width="1" height="1"/>
<rect x="15" y="3" fill="#FFFFFF" width="1" height="3"/>
<rect x="3" y="9" fill="#FFFFFF" width="1" height="1"/>
<rect x="7" y="13" fill="#FFFFFF" width="1" height="1"/>
<rect x="3" y="15" fill="#FFFFFF" width="3" height="1"/>
<rect x="2" y="14" fill="#FFFFFF" width="1" height="1"/>
<rect x="1" y="11" fill="#FFFFFF" width="1" height="3"/>
<rect x="4" y="9" fill="#FFFFFF" width="1" height="1"/>
<rect x="7" y="12" fill="#FFFFFF" width="1" height="1"/>
<rect x="14" y="6" fill="#FFFFFF" width="1" height="1"/>
<rect x="2" y="10" fill="#FFFFFF" width="1" height="1"/>
<rect x="6" y="14" fill="#FFFFFF" width="1" height="1"/>
<rect x="10" y="2" fill="#FFFFFF" width="1" height="1"/>
<rect x="9" y="3" fill="#FFFFFF" width="1" height="2"/>
<rect x="12" y="7" fill="#FFFFFF" width="2" height="1"/>
<g>
</g>
<g>
</g>
<g>
</g>
<g>
</g>
<g>
</g>
<g>
</g>
</svg>
