<?xml version="1.0" encoding="utf-8"?>
<!-- Generator: Adobe Illustrator 16.0.0, SVG Export Plug-In . SVG Version: 6.00 Build 0)  -->
<!DOCTYPE svg PUBLIC "-//W3C//DTD SVG 1.1//EN" "http://www.w3.org/Graphics/SVG/1.1/DTD/svg11.dtd">
<svg version="1.1" id="Layer_1" xmlns="http://www.w3.org/2000/svg" xmlns:xlink="http://www.w3.org/1999/xlink" x="0px" y="0px"
	 width="18px" height="17px" viewBox="0 0 18 17" enable-background="new 0 0 18 17" xml:space="preserve">
<g>
	<rect x="7" y="4" fill="none" width="4" height="3"/>
	<polygon fill="none" points="6,4 6,3 7,3 11,3 12,3 12,4 12,7 13,7 13,2 5,2 5,7 6,7 	"/>
	<polygon fill="none" points="12,8 11,8 7,8 6,8 5,8 4,8 4,15 14,15 14,8 13,8 	"/>
	<path fill="#FFFFFF" d="M14,7V2V1h-1H5H4v1v5H3v1v7v1h1h10h1v-1V8V7H14z M5,2h8v5h-1V4V3h-1H7H6v1v3H5V2z M11,7H7V4h4V7z M14,15H4
		V8h1h1h1h4h1h1h1V15z"/>
</g>
<g>
</g>
<g>
</g>
<g>
</g>
<g>
</g>
<g>
</g>
<g>
</g>
</svg>
