<?xml version="1.0" encoding="utf-8"?>
<!-- Generator: Adobe Illustrator 16.0.0, SVG Export Plug-In . SVG Version: 6.00 Build 0)  -->
<!DOCTYPE svg PUBLIC "-//W3C//DTD SVG 1.1//EN" "http://www.w3.org/Graphics/SVG/1.1/DTD/svg11.dtd">
<svg version="1.1" id="Layer_1" xmlns="http://www.w3.org/2000/svg" xmlns:xlink="http://www.w3.org/1999/xlink" x="0px" y="0px"
	 width="18px" height="17px" viewBox="0 0 18 17" enable-background="new 0 0 18 17" xml:space="preserve">
<g>
	<rect x="6" y="4" fill="#FFFFFF" width="1" height="1"/>
	<rect x="7" y="3" fill="#FFFFFF" width="1" height="1"/>
	<polygon fill="#FFFFFF" points="10,2 10,1 9,1 9,2 8,2 8,3 9,3 9,14 8,14 8,15 9,15 9,16 10,16 10,15 11,15 11,14 10,14 10,3 11,3 
		11,2 	"/>
	<rect x="11" y="3" fill="#FFFFFF" width="1" height="1"/>
	<rect x="12" y="4" fill="#FFFFFF" width="1" height="1"/>
	<rect x="6" y="12" fill="#FFFFFF" width="1" height="1"/>
	<rect x="7" y="13" fill="#FFFFFF" width="1" height="1"/>
	<rect x="11" y="13" fill="#FFFFFF" width="1" height="1"/>
	<rect x="12" y="12" fill="#FFFFFF" width="1" height="1"/>
</g>
<g>
</g>
<g>
</g>
<g>
</g>
<g>
</g>
<g>
</g>
<g>
</g>
</svg>
