<?xml version="1.0" encoding="utf-8"?>
<!-- Generator: Adobe Illustrator 16.0.0, SVG Export Plug-In . SVG Version: 6.00 Build 0)  -->
<!DOCTYPE svg PUBLIC "-//W3C//DTD SVG 1.1//EN" "http://www.w3.org/Graphics/SVG/1.1/DTD/svg11.dtd">
<svg version="1.1" id="Layer_1" xmlns="http://www.w3.org/2000/svg" xmlns:xlink="http://www.w3.org/1999/xlink" x="0px" y="0px"
	 width="18px" height="17px" viewBox="0 0 18 17" enable-background="new 0 0 18 17" xml:space="preserve">
<g>
	<path fill="none" d="M2,15h14V5H2V15z M4,7h7v1H4V7z M4,9h10v1H4V9z M9,11v1H4v-1H9z"/>
	<rect x="2" y="2" fill="none" width="14" height="2"/>
	<path fill="#FFFFFF" d="M16,1H2H1v1v2v1v10v1h15h1v-1V5V4V2V1H16z M16,15H2V5h14V15z M16,4H2V2h14V4z"/>
	<rect x="4" y="7" fill="#FFFFFF" width="7" height="1"/>
	<rect x="4" y="9" fill="#FFFFFF" width="10" height="1"/>
	<rect x="4" y="11" fill="#FFFFFF" width="5" height="1"/>
</g>
<g>
</g>
<g>
</g>
<g>
</g>
<g>
</g>
<g>
</g>
<g>
</g>
</svg>
