<?xml version="1.0" encoding="utf-8"?>
<!-- Generator: Adobe Illustrator 18.1.1, SVG Export Plug-In . SVG Version: 6.00 Build 0)  -->
<!DOCTYPE svg PUBLIC "-//W3C//DTD SVG 1.1//EN" "http://www.w3.org/Graphics/SVG/1.1/DTD/svg11.dtd">
<svg version="1.1" id="Layer_1" xmlns="http://www.w3.org/2000/svg" xmlns:xlink="http://www.w3.org/1999/xlink" x="0px" y="0px"
	 width="18" height="17" viewBox="0 0 18 17" enable-background="new 0 0 18 17" xml:space="preserve">
<g>
	<rect x="12" y="10" fill="none" width="4" height="1"/>
	<rect x="12" y="6" fill="none" width="4" height="1"/>
	<rect x="12" y="12" fill="none" width="4" height="1"/>
	<rect x="12" y="8" fill="none" width="4" height="1"/>
	<path fill="none" d="M2,8v7h4V8H2z M5,14H3v-2h2V14z M5,11H3V9h2V11z"/>
	<rect x="12" y="4" fill="none" width="4" height="1"/>
	<rect x="12" y="14" fill="none" width="4" height="1"/>
	<path fill="none" d="M11,11V2H7v13h4v-3V11z M10,14H8v-1h2V14z M10,12H8v-1h2V12z M10,10H8V9h2V10z M10,8H8V7h2V8z M10,6H8V5h2V6z
		 M10,4H8V3h2V4z"/>
	<path fill="#FFFFFF" d="M16,3h-4V2V1h-1H7H6v1v5H2H1v1v7v1h5h1h4h1h4h1v-1V4V3H16z M12,12h4v1h-4V12z M12,11v-1h4v1H12z M12,9V8h4
		v1H12z M12,7V6h4v1H12z M2,15V8h4v7H2z M7,15V2h4v9v1v3H7z M12,15v-1h4v1H12z M16,5h-4V4h4V5z"/>
	<rect x="3" y="9" fill="#FFFFFF" width="2" height="2"/>
	<rect x="3" y="12" fill="#FFFFFF" width="2" height="2"/>
	<rect x="8" y="13" fill="#FFFFFF" width="2" height="1"/>
	<rect x="8" y="11" fill="#FFFFFF" width="2" height="1"/>
	<rect x="8" y="9" fill="#FFFFFF" width="2" height="1"/>
	<rect x="8" y="7" fill="#FFFFFF" width="2" height="1"/>
	<rect x="8" y="5" fill="#FFFFFF" width="2" height="1"/>
	<rect x="8" y="3" fill="#FFFFFF" width="2" height="1"/>
</g>
</svg>
