<?xml version="1.0" encoding="utf-8"?>
<!-- Generator: Adobe Illustrator 16.0.0, SVG Export Plug-In . SVG Version: 6.00 Build 0)  -->
<!DOCTYPE svg PUBLIC "-//W3C//DTD SVG 1.1//EN" "http://www.w3.org/Graphics/SVG/1.1/DTD/svg11.dtd">
<svg version="1.1" id="Layer_1" xmlns="http://www.w3.org/2000/svg" xmlns:xlink="http://www.w3.org/1999/xlink" x="0px" y="0px"
	 width="18px" height="17px" viewBox="0 0 18 17" enable-background="new 0 0 18 17" xml:space="preserve">
<g>
	<path fill="none" d="M14,3h1v1h-1h-1h-1V3h1V2H5v1h1v1H5H4H3V3h1V2H2v13h14V2h-2V3z M8,12H3V7h5V12z M14,12h-4v-1h4V12z M14,10h-4
		V9h4V10z M14,8h-4V7h4V8z"/>
	<path fill="#FFFFFF" d="M16,1h-2h-1H5H4H2H1v1v14h1h14h1v-1V2V1H16z M16,15H2V2h2v1H3v1h1h1h1V3H5V2h8v1h-1v1h1h1h1V3h-1V2h2V15z"
		/>
	<rect x="10" y="7" fill="#FFFFFF" width="4" height="1"/>
	<rect x="10" y="9" fill="#FFFFFF" width="4" height="1"/>
	<rect x="10" y="11" fill="#FFFFFF" width="4" height="1"/>
	<rect x="3" y="7" fill="#FFFFFF" width="5" height="5"/>
</g>
<g>
</g>
<g>
</g>
<g>
</g>
<g>
</g>
<g>
</g>
<g>
</g>
</svg>
