<?xml version="1.0" encoding="utf-8"?>
<!-- Generator: Adobe Illustrator 16.0.0, SVG Export Plug-In . SVG Version: 6.00 Build 0)  -->
<!DOCTYPE svg PUBLIC "-//W3C//DTD SVG 1.1//EN" "http://www.w3.org/Graphics/SVG/1.1/DTD/svg11.dtd">
<svg version="1.1" id="Layer_1" xmlns="http://www.w3.org/2000/svg" xmlns:xlink="http://www.w3.org/1999/xlink" x="0px" y="0px"
	 width="18px" height="17px" viewBox="0 0 18 17" enable-background="new 0 0 18 17" xml:space="preserve">
<g>
	<path fill="none" d="M4,15h10V2H4V15z M10,14H8v-1h2V14z M10,12H8v-1h2V12z M10,10H8V9h2V10z M13,14h-2v-1h2V14z M13,12h-2v-1h2V12
		z M13,10h-2V9h2V10z M5,7V4V3h1h7v1v3v1h-1H6H5V7z M5,9h2v1H5V9z M5,11h2v1H5V11z M7,13v1H5v-1H7z"/>
	<rect x="6" y="4" fill="none" width="6" height="3"/>
	<path fill="#FFFFFF" d="M14,1H4H3v1v13v1h1h11v-1V2V1H14z M14,15H4V2h10V15z"/>
	<path fill="#FFFFFF" d="M12,8h1V7V4V3H6H5v1v3v1h1H12z M6,4h6v3H6V4z"/>
	<rect x="5" y="9" fill="#FFFFFF" width="2" height="1"/>
	<rect x="8" y="9" fill="#FFFFFF" width="2" height="1"/>
	<rect x="11" y="9" fill="#FFFFFF" width="2" height="1"/>
	<rect x="8" y="11" fill="#FFFFFF" width="2" height="1"/>
	<rect x="11" y="11" fill="#FFFFFF" width="2" height="1"/>
	<rect x="5" y="11" fill="#FFFFFF" width="2" height="1"/>
	<rect x="8" y="13" fill="#FFFFFF" width="2" height="1"/>
	<rect x="5" y="13" fill="#FFFFFF" width="2" height="1"/>
	<rect x="11" y="13" fill="#FFFFFF" width="2" height="1"/>
</g>
<g>
</g>
<g>
</g>
<g>
</g>
<g>
</g>
<g>
</g>
<g>
</g>
</svg>
