<?xml version="1.0" encoding="utf-8"?>
<!-- Generator: Adobe Illustrator 16.0.0, SVG Export Plug-In . SVG Version: 6.00 Build 0)  -->
<!DOCTYPE svg PUBLIC "-//W3C//DTD SVG 1.1//EN" "http://www.w3.org/Graphics/SVG/1.1/DTD/svg11.dtd">
<svg version="1.1" id="Layer_1" xmlns="http://www.w3.org/2000/svg" xmlns:xlink="http://www.w3.org/1999/xlink" x="0px" y="0px"
	 width="18px" height="17px" viewBox="0 0 18 17" enable-background="new 0 0 18 17" xml:space="preserve">
<g>
	<rect x="4" y="2" fill="none" width="10" height="2"/>
	<path fill="none" d="M14,12H4v1v1v1h10v-1v-1V12z M13,14H5v-1h8V14z"/>
	<path fill="none" d="M14,5H2v8h1v-1v-1h1h10h1v1v1h1V5h-1H14z M11,7h-1V6h1V7z M13,7h-1V6h1V7z M15,7h-1V6h1V7z"/>
	<path fill="#FFFFFF" d="M16,4h-1V2V1h-1H4H3v1v2H2H1v1v8v1h1h1v1v1h1h11v-1v-1h1h1v-1V5V4H16z M4,2h10v2H4V2z M14,15H4v-1v-1v-1h10
		v1v1V15z M16,13h-1v-1v-1h-1H4H3v1v1H2V5h12h1h1V13z"/>
	<rect x="5" y="13" fill="#FFFFFF" width="8" height="1"/>
	<rect x="10" y="6" fill="#FFFFFF" width="1" height="1"/>
	<rect x="12" y="6" fill="#FFFFFF" width="1" height="1"/>
	<rect x="14" y="6" fill="#FFFFFF" width="1" height="1"/>
</g>
<g>
</g>
<g>
</g>
<g>
</g>
<g>
</g>
<g>
</g>
<g>
</g>
</svg>
