<?xml version="1.0" encoding="utf-8"?>
<!-- Generator: Adobe Illustrator 16.0.0, SVG Export Plug-In . SVG Version: 6.00 Build 0)  -->
<!DOCTYPE svg PUBLIC "-//W3C//DTD SVG 1.1//EN" "http://www.w3.org/Graphics/SVG/1.1/DTD/svg11.dtd">
<svg version="1.1" id="Layer_1" xmlns="http://www.w3.org/2000/svg" xmlns:xlink="http://www.w3.org/1999/xlink" x="0px" y="0px"
	 width="18px" height="17px" viewBox="0 0 18 17" enable-background="new 0 0 18 17" xml:space="preserve">
<g>
	<rect x="14" y="7" fill="none" width="1" height="1"/>
	<polygon fill="none" points="9,3 9,2 8,2 8,3 7,3 7,4 8,4 8,15 9,15 9,4 10,4 10,3 	"/>
	<rect x="2" y="7" fill="none" width="1" height="1"/>
	<path fill="#FFFFFF" d="M4,7h1V6H4H3H2H1v1v1v1v1h1V9h1h1V8V7z M2,8V7h1v1H2z"/>
	<rect x="4" y="9" fill="#FFFFFF" width="1" height="1"/>
	<rect x="5" y="10" fill="#FFFFFF" width="1" height="1"/>
	<rect x="11" y="10" fill="#FFFFFF" width="1" height="1"/>
	<rect x="12" y="9" fill="#FFFFFF" width="1" height="1"/>
	<path fill="#FFFFFF" d="M15,6h-1h-1h-1v1h1v1v1h1h1v1h1V9V8V7V6H15z M15,8h-1V7h1V8z"/>
	<polygon fill="#FFFFFF" points="9,15 8,15 8,4 7,4 7,15 7,16 8,16 9,16 10,16 10,15 10,4 9,4 	"/>
	<rect x="6" y="3" fill="#FFFFFF" width="1" height="1"/>
	<rect x="7" y="2" fill="#FFFFFF" width="1" height="1"/>
	<rect x="8" y="1" fill="#FFFFFF" width="1" height="1"/>
	<rect x="9" y="2" fill="#FFFFFF" width="1" height="1"/>
	<rect x="10" y="3" fill="#FFFFFF" width="1" height="1"/>
</g>
<g>
</g>
<g>
</g>
<g>
</g>
<g>
</g>
<g>
</g>
<g>
</g>
</svg>
