<?xml version="1.0" encoding="utf-8"?>
<!-- Generator: Adobe Illustrator 16.0.0, SVG Export Plug-In . SVG Version: 6.00 Build 0)  -->
<!DOCTYPE svg PUBLIC "-//W3C//DTD SVG 1.1//EN" "http://www.w3.org/Graphics/SVG/1.1/DTD/svg11.dtd">
<svg version="1.1" id="Layer_1" xmlns="http://www.w3.org/2000/svg" xmlns:xlink="http://www.w3.org/1999/xlink" x="0px" y="0px"
	 width="18px" height="17px" viewBox="0 0 18 17" enable-background="new 0 0 18 17" xml:space="preserve">
<g>
	<rect x="9" y="11" fill="none" width="7" height="2"/>
	<polygon fill="none" points="6,9 6,10 6,11 6,13 6,14 6,15 8,15 8,9 	"/>
	<rect x="2" y="11" fill="none" width="3" height="2"/>
	<rect x="11" y="2" fill="none" width="2" height="1"/>
	<rect x="14" y="4" fill="none" width="2" height="2"/>
	<polygon fill="none" points="13,4 11,4 11,8 13,8 13,7 13,6 	"/>
	<rect x="2" y="4" fill="none" width="8" height="2"/>
	<path fill="#FFFFFF" d="M16,3h-2V2V1h-1h-2h-1v1v1H2H1v1v2v1h1h8v1v1h1h2h1V8V7h2h1V6V4V3H16z M11,2h2v1h-2V2z M2,6V4h8v2H2z M13,8
		h-2V4h2v2v1V8z M16,6h-2V4h2V6z"/>
	<path fill="#FFFFFF" d="M9,9V8H8H6H5v1v1H2H1v1v2v1h1h3v1v1h1h2h1v-1v-1h7h1v-1v-2v-1H9V9z M2,13v-2h3v2H2z M6,15v-1v-1v-2v-1V9h2
		v6H6z M16,11v2H9v-2H16z"/>
</g>
<g>
</g>
<g>
</g>
<g>
</g>
<g>
</g>
<g>
</g>
<g>
</g>
</svg>
