<?xml version="1.0" encoding="utf-8"?>
<!-- Generator: Adobe Illustrator 16.0.0, SVG Export Plug-In . SVG Version: 6.00 Build 0)  -->
<!DOCTYPE svg PUBLIC "-//W3C//DTD SVG 1.1//EN" "http://www.w3.org/Graphics/SVG/1.1/DTD/svg11.dtd">
<svg version="1.1" id="Layer_1" xmlns="http://www.w3.org/2000/svg" xmlns:xlink="http://www.w3.org/1999/xlink" x="0px" y="0px"
	 width="18px" height="17px" viewBox="0 0 18 17" enable-background="new 0 0 18 17" xml:space="preserve">
<g>
	<rect x="5" y="5" fill="none" width="2" height="10"/>
	<polygon fill="none" points="10,4 11,4 11,2 7,2 7,4 8,4 	"/>
	<rect x="8" y="5" fill="none" width="2" height="10"/>
	<rect x="11" y="5" fill="none" width="2" height="10"/>
	<path fill="#FFFFFF" d="M16,4h-2h-1h-1V2V1h-1H7H6v1v2H5H4H2v1h2v10v1h1h8h1v-1V5h2V4z M7,2h4v2h-1H8H7V2z M5,15V5h2v10H5z M8,15V5
		h2v10H8z M13,15h-2V5h2V15z"/>
</g>
<g>
</g>
<g>
</g>
<g>
</g>
<g>
</g>
<g>
</g>
<g>
</g>
</svg>
