<?xml version="1.0" encoding="utf-8"?>
<!-- Generator: Adobe Illustrator 16.0.0, SVG Export Plug-In . SVG Version: 6.00 Build 0)  -->
<!DOCTYPE svg PUBLIC "-//W3C//DTD SVG 1.1//EN" "http://www.w3.org/Graphics/SVG/1.1/DTD/svg11.dtd">
<svg version="1.1" id="Layer_1" xmlns="http://www.w3.org/2000/svg" xmlns:xlink="http://www.w3.org/1999/xlink" x="0px" y="0px"
	 width="18px" height="17px" viewBox="0 0 18 17" enable-background="new 0 0 18 17" xml:space="preserve">
<g>
	<polygon fill="none" points="4,7 2,7 2,11 3,11 3,15 5,15 5,12 4,12 	"/>
	<rect x="13" y="2" fill="none" width="2" height="2"/>
	<rect x="3" y="2" fill="none" width="2" height="2"/>
	<polygon fill="none" points="7,7 7,9 8,9 8,15 10,15 10,9 11,9 11,7 	"/>
	<rect x="8" y="2" fill="none" width="2" height="2"/>
	<polygon fill="none" points="14,12 13,12 13,15 15,15 15,11 16,11 16,7 14,7 	"/>
	<path fill="#FFFFFF" d="M15,5h1V4V2V1h-1h-2h-1v1v2v1h1H15z M13,2h2v2h-2V2z"/>
	<path fill="#FFFFFF" d="M10,5h1V4V2V1h-1H8H7v1v2v1h1H10z M8,2h2v2H8V2z"/>
	<path fill="#FFFFFF" d="M5,5h1V4V2V1H5H3H2v1v2v1h1H5z M3,2h2v2H3V2z"/>
	<path fill="#FFFFFF" d="M5,7V6H4H2H1v1v5h1v3v1h1h2h1v-1v-4H5V7z M5,15H3v-4H2V7h2v5h1V15z"/>
	<path fill="#FFFFFF" d="M12,7V6h-1H7H6v1v3h1v5v1h1h3v-1v-5h1V7z M10,9v6H8V9H7V7h4v2H10z"/>
	<path fill="#FFFFFF" d="M16,6h-2h-1v1v4h-1v4v1h1h2h1v-1v-3h1V7V6H16z M16,11h-1v4h-2v-3h1V7h2V11z"/>
</g>
<g>
</g>
<g>
</g>
<g>
</g>
<g>
</g>
<g>
</g>
<g>
</g>
</svg>
