<?xml version="1.0" encoding="utf-8"?>
<!-- Generator: Adobe Illustrator 16.0.0, SVG Export Plug-In . SVG Version: 6.00 Build 0)  -->
<!DOCTYPE svg PUBLIC "-//W3C//DTD SVG 1.1//EN" "http://www.w3.org/Graphics/SVG/1.1/DTD/svg11.dtd">
<svg version="1.1" id="Layer_2" xmlns="http://www.w3.org/2000/svg" xmlns:xlink="http://www.w3.org/1999/xlink" x="0px" y="0px"
	 width="32px" height="27px" viewBox="0 0 32 27" enable-background="new 0 0 32 27" xml:space="preserve">
<g>
	<rect fill="#FFFFFF" x="8" width="5" height="4"/>
	<rect fill="#FFFFFF" x="19" width="5" height="4"/>
	<polygon fill="#FFFFFF" points="29,20 29,17 28,17 28,14 27,14 27,11 26,11 26,8 25,8 25,5 19,5 19,8 13,8 13,5 7,5 7,8 6,8 6,11 5,11 5,14 4,14 
		4,17 3,17 3,20 2,20 2,27 3,27 4,27 12,27 12,20 12,17 13,17 13,13 19,13 19,17 20,17 20,20 20,27 28,27 29,27 30,27 30,20 	"/>
</g>
<g>
</g>
<g>
</g>
<g>
</g>
<g>
</g>
<g>
</g>
<g>
</g>
</svg>
