<?xml version="1.0" encoding="utf-8"?>
<!-- Generator: Adobe Illustrator 16.0.0, SVG Export Plug-In . SVG Version: 6.00 Build 0)  -->
<!DOCTYPE svg PUBLIC "-//W3C//DTD SVG 1.1//EN" "http://www.w3.org/Graphics/SVG/1.1/DTD/svg11.dtd">
<svg version="1.1" id="Layer_2" xmlns="http://www.w3.org/2000/svg" xmlns:xlink="http://www.w3.org/1999/xlink" x="0px" y="0px"
	 width="32px" height="27px" viewBox="0 0 32 27" enable-background="new 0 0 32 27" xml:space="preserve">
<g>
	<path fill="none" d="M3,24h26V3H3V24z M25,4h3v3h-3V4z M9,10h7v1H9V10z M9,12h15v1H9V12z M22,14v1H9v-1H22z"/>
	<path fill="#FFFFFF" d="M29,0H3H0v3v21v3h3h26h3v-3V3V0H29z M29,24H3V3h26V24z"/>
	<rect fill="#FFFFFF" x="25" y="4" width="3" height="3"/>
	<rect fill="#FFFFFF" x="9" y="10" width="7" height="1"/>
	<rect fill="#FFFFFF" x="9" y="12" width="15" height="1"/>
	<rect fill="#FFFFFF" x="9" y="14" width="13" height="1"/>
</g>
<g>
</g>
<g>
</g>
<g>
</g>
<g>
</g>
<g>
</g>
<g>
</g>
</svg>
