<?xml version="1.0" encoding="utf-8"?>
<!-- Generator: Adobe Illustrator 16.0.0, SVG Export Plug-In . SVG Version: 6.00 Build 0)  -->
<!DOCTYPE svg PUBLIC "-//W3C//DTD SVG 1.1//EN" "http://www.w3.org/Graphics/SVG/1.1/DTD/svg11.dtd">
<svg version="1.1" id="Layer_2" xmlns="http://www.w3.org/2000/svg" xmlns:xlink="http://www.w3.org/1999/xlink" x="0px" y="0px"
	 width="32px" height="27px" viewBox="0 0 32 27" enable-background="new 0 0 32 27" xml:space="preserve">
<g>
	<path fill="none" d="M4,5h1v1h1v1h1v1h1v1h1v1h1v1h1v1h1v1v11h8V13v-1h1v-1h1v-1h1V9h1V8h1V7h1V6h1V5h1V3H4V5z M19,19h-6v-1h6V19z
		 M19,13h-6v-1h6V13z M9,6h14v1H9V6z"/>
	<path fill="#FFFFFF" d="M28,0H4H1v3v2v1h1v1h1v1h1v1h1v1h1v1h1v1h1v1h1v11v3h3h8h3v-3V13h1v-1h1v-1h1v-1h1V9h1V8h1V7h1V6h1V5V3V0H28z M28,5h-1v1
		h-1v1h-1v1h-1v1h-1v1h-1v1h-1v1h-1v1v11h-8V13v-1h-1v-1h-1v-1H9V9H8V8H7V7H6V6H5V5H4V3h24V5z"/>
	<rect fill="#FFFFFF" x="9" y="6" width="14" height="1"/>
	<rect fill="#FFFFFF" x="13" y="12" width="6" height="1"/>
	<rect fill="#FFFFFF" x="13" y="18" width="6" height="1"/>
</g>
<g>
</g>
<g>
</g>
<g>
</g>
<g>
</g>
<g>
</g>
<g>
</g>
</svg>
