<?xml version="1.0" encoding="utf-8"?>
<!-- Generator: Adobe Illustrator 18.1.1, SVG Export Plug-In . SVG Version: 6.00 Build 0)  -->
<!DOCTYPE svg PUBLIC "-//W3C//DTD SVG 1.1//EN" "http://www.w3.org/Graphics/SVG/1.1/DTD/svg11.dtd">
<svg version="1.1" id="Layer_2" xmlns="http://www.w3.org/2000/svg" xmlns:xlink="http://www.w3.org/1999/xlink" x="0px" y="0px"
     width="32px" height="27px" viewBox="0 0 32 27" enable-background="new 0 0 32 27" xml:space="preserve">
<rect x="10" y="19" fill="#FFFFFF" width="7" height="1"/>
<rect x="10" y="17" fill="#FFFFFF" width="7" height="1"/>
<rect x="10" y="15" fill="#FFFFFF" width="7" height="1"/>
<rect x="10" y="13" fill="#FFFFFF" width="10" height="1"/>
<rect x="10" y="11" fill="#FFFFFF" width="12" height="1"/>
<rect x="10" y="9" fill="#FFFFFF" width="12" height="1"/>
<rect x="10" y="7" fill="#FFFFFF" width="12" height="1"/>
<rect x="4.083" fill="#FFFFFF" width="23.917" height="3"/>
<rect x="4" y="3" fill="#FFFFFF" width="2.958" height="24"/>
<rect x="25" y="3" fill="#FFFFFF" width="3" height="19"/>
<rect x="7" y="24" fill="#FFFFFF" width="16" height="3"/>
<rect x="23" y="23" fill="#FFFFFF" width="1" height="3"/>
<rect x="24" y="22" fill="#FFFFFF" width="1" height="3"/>
<rect x="25" y="22" fill="#FFFFFF" width="1" height="2"/>
<rect x="26" y="22" fill="#FFFFFF" width="1" height="1"/>
<rect x="22" y="23" fill="#FFFFFF" width="1" height="1"/>
<rect x="23" y="22" fill="#FFFFFF" width="1" height="1"/>
<rect x="24" y="21" fill="#FFFFFF" width="1" height="1"/>
</svg>
