<?xml version="1.0" encoding="utf-8"?>
<!-- Generator: Adobe Illustrator 18.1.0, SVG Export Plug-In . SVG Version: 6.00 Build 0)  -->
<!DOCTYPE svg PUBLIC "-//W3C//DTD SVG 1.1//EN" "http://www.w3.org/Graphics/SVG/1.1/DTD/svg11.dtd">
<svg version="1.1" id="Layer_2" xmlns="http://www.w3.org/2000/svg" xmlns:xlink="http://www.w3.org/1999/xlink" x="0px" y="0px"
	 width="32px" height="27px" viewBox="0 0 32 27" enable-background="new 0 0 32 27" xml:space="preserve">
<g>
	<polygon fill="none" points="21,13 20,13 20,12 19,12 19,11 18,11 18,10 17,10 17,14 21,14 	"/>
	<polygon fill="none" points="14,10 13,10 13,11 12,11 12,12 11,12 11,13 10,13 10,14 14,14 	"/>
	<polygon fill="none" points="10,4 10,5 11,5 11,6 12,6 12,7 14,7 14,3 9,3 9,4 	"/>
	<rect x="17" y="17" fill="none" width="5" height="2"/>
	<polygon fill="none" points="19,7 19,6 20,6 20,5 21,5 21,4 22,4 22,3 17,3 17,7 	"/>
	<rect x="17" y="22" fill="none" width="5" height="2"/>
	<rect x="9" y="17" fill="none" width="5" height="2"/>
	<rect x="9" y="22" fill="none" width="5" height="2"/>
	<path fill="#ffffff" d="M29,18v-1h-1v-1h-1v-1h-1v-1h-1v-1h-1v-1h-1v-1h-1v-1h7V7h-6V6h1V5h1V4h1V3h1V0H17h-3H4v3h1v1h1v1h1v1h1v1H2v3h7v1H8v1H7v1
		H6v1H5v1H4v1H3v1H2v1H1v1h1h2h1v-1h1v1v3v5h1h2h5h3h5h3v-3v-6h1v1h1h2h1v-1H29z M22,19h-5v-2h5V19z M10,13h1v-1h1v-1h1v-1h1v4h-4
		V13z M17,10h1v1h1v1h1v1h1v1h-4V10z M22,3v1h-1v1h-1v1h-1v1h-2V3H22z M14,3v4h-2V6h-1V5h-1V4H9V3H14z M9,17h5v2H9V17z M9,24v-2h5v2
		H9z M17,24v-2h5v2H17z"/>
</g>
<g>
</g>
<g>
</g>
<g>
</g>
<g>
</g>
<g>
</g>
<g>
</g>
</svg>
