<?xml version="1.0" encoding="utf-8"?>
<!-- Generator: Adobe Illustrator 16.0.0, SVG Export Plug-In . SVG Version: 6.00 Build 0)  -->
<!DOCTYPE svg PUBLIC "-//W3C//DTD SVG 1.1//EN" "http://www.w3.org/Graphics/SVG/1.1/DTD/svg11.dtd">
<svg version="1.1" id="Layer_2" xmlns="http://www.w3.org/2000/svg" xmlns:xlink="http://www.w3.org/1999/xlink" x="0px" y="0px"
	 width="32px" height="27px" viewBox="0 0 32 27" enable-background="new 0 0 32 27" xml:space="preserve">
<g>
	<polygon fill="none" points="18,13 18,12 18,3 14,3 14,11 14,12 14,13 13,13 13,14 19,14 19,13 	"/>
	<path fill="#FFFFFF" d="M23,13v-1h-1v-1h-1V3V0h-3h-4h-3v3v8h-1v1H9v1H8v1v3h7v10h1h1V17h7v-3v-1H23z M13,14v-1h1v-1v-1V3h4v9v1h1v1H13z"/>
</g>
<g>
</g>
<g>
</g>
<g>
</g>
<g>
</g>
<g>
</g>
<g>
</g>
</svg>
