<?xml version="1.0" encoding="utf-8"?>
<!-- Generator: Adobe Illustrator 16.0.0, SVG Export Plug-In . SVG Version: 6.00 Build 0)  -->
<!DOCTYPE svg PUBLIC "-//W3C//DTD SVG 1.1//EN" "http://www.w3.org/Graphics/SVG/1.1/DTD/svg11.dtd">
<svg version="1.1" id="Layer_2" xmlns="http://www.w3.org/2000/svg" xmlns:xlink="http://www.w3.org/1999/xlink" x="0px" y="0px"
	 width="32px" height="27px" viewBox="0 0 32 27" enable-background="new 0 0 32 27" xml:space="preserve">
<g>
	<path fill="none" d="M3,7v17h26V7H3z M10,11h6v1h-6V11z M10,13h6v1h-6V13z M10,15h6v1h-6V15z M22,22H10v-1h12V22z M22,20H10v-1h12
		V20z M22,18H10v-1h12V18z M22,12v3v1h-1h-4v-1v-3v-1h5V12z M10,10V9h12v1H10z"/>
	<rect x="18" y="12" fill="none" width="3" height="3"/>
	<rect x="3" y="3" fill="none" width="26" height="1"/>
	<path fill="#FFFFFF" d="M29,0H3H0v3v1v3v17v1v2h29h3v-3V3V0H29z M3,24V7h26v17H3z M29,4H3V3h26V4z"/>
	<rect fill="#FFFFFF" x="10" y="9" width="12" height="1"/>
	<rect fill="#FFFFFF" x="10" y="11" width="6" height="1"/>
	<rect fill="#FFFFFF" x="10" y="13" width="6" height="1"/>
	<rect fill="#FFFFFF" x="10" y="15" width="6" height="1"/>
	<rect fill="#FFFFFF" x="10" y="17" width="12" height="1"/>
	<rect fill="#FFFFFF" x="10" y="19" width="12" height="1"/>
	<rect fill="#FFFFFF" x="10" y="21" width="12" height="1"/>
	<path fill="#FFFFFF" d="M17,12v3v1h4h1v-1v-3v-1h-5V12z M21,12v3h-3v-3H21z"/>
</g>
<g>
</g>
<g>
</g>
<g>
</g>
<g>
</g>
<g>
</g>
<g>
</g>
</svg>
