<?xml version="1.0" encoding="utf-8"?>
<!-- Generator: Adobe Illustrator 16.0.0, SVG Export Plug-In . SVG Version: 6.00 Build 0)  -->
<!DOCTYPE svg PUBLIC "-//W3C//DTD SVG 1.1//EN" "http://www.w3.org/Graphics/SVG/1.1/DTD/svg11.dtd">
<svg version="1.1" id="Layer_2" xmlns="http://www.w3.org/2000/svg" xmlns:xlink="http://www.w3.org/1999/xlink" x="0px" y="0px"
	 width="32px" height="27px" viewBox="0 0 32 27" enable-background="new 0 0 32 27" xml:space="preserve">
<g>
	<path fill="none" d="M3,24h26V3H3V24z M23,6h3v3h-3V6z M23,11h2h1v1v4h-1v-4h-2V11z M19,6h3v3h-3V6z M19,15h2v-1h-1h-1v-1v-1v-1h1
		h2v1h-2v1h1h1v1v1v1h-1h-2V15z M14,11h1v2h1v-2h1v2v1v2h-1v-2h-1h-1V11z M10,15h2v-1h-1h-1v-1h1h1v-1h-2v-1h2h1v1v4h-1h-2V15z
		 M6,15v-1v-1h1h1v-1H6v-1h3v1v1v1H8H7v1h2v1H7H6V15z M6,18h7v1H6V18z M21,20v1H6v-1H21z"/>
	<path fill="#FFFFFF" d="M3,0H0v3v21v3h3h26h3v-3V3V0H3z M29,24H3V3h26V24z"/>
	<rect fill="#FFFFFF" x="19" y="6" width="3" height="3"/>
	<rect fill="#FFFFFF" x="23" y="6" width="3" height="3"/>
	<rect fill="#FFFFFF" x="6" y="18" width="7" height="1"/>
	<rect fill="#FFFFFF" x="6" y="20" width="15" height="1"/>
	<polygon fill="#FFFFFF" points="9,16 9,15 7,15 7,14 8,14 9,14 9,13 9,12 9,11 6,11 6,12 8,12 8,13 7,13 6,13 6,14 6,15 6,16 7,16 	"/>
	<polygon fill="#FFFFFF" points="13,16 13,12 13,11 12,11 10,11 10,12 12,12 12,13 11,13 10,13 10,14 11,14 12,14 12,15 10,15 10,16 12,16 	"/>
	<polygon fill="#FFFFFF" points="16,14 16,16 17,16 17,14 17,13 17,11 16,11 16,13 15,13 15,11 14,11 14,14 15,14 	"/>
	<polygon fill="#FFFFFF" points="22,16 22,15 22,14 22,13 21,13 20,13 20,12 22,12 22,11 20,11 19,11 19,12 19,13 19,14 20,14 21,14 21,15 19,15 
		19,16 21,16 	"/>
	<polygon fill="#FFFFFF" points="25,16 26,16 26,12 26,11 25,11 23,11 23,12 25,12 	"/>
</g>
<g>
</g>
<g>
</g>
<g>
</g>
<g>
</g>
<g>
</g>
<g>
</g>
</svg>
