<?xml version="1.0" encoding="utf-8"?>
<!-- Generator: Adobe Illustrator 16.0.0, SVG Export Plug-In . SVG Version: 6.00 Build 0)  -->
<!DOCTYPE svg PUBLIC "-//W3C//DTD SVG 1.1//EN" "http://www.w3.org/Graphics/SVG/1.1/DTD/svg11.dtd">
<svg version="1.1" id="Layer_2" xmlns="http://www.w3.org/2000/svg" xmlns:xlink="http://www.w3.org/1999/xlink" x="0px" y="0px"
	 width="32px" height="27px" viewBox="0 0 32 27" enable-background="new 0 0 32 27" xml:space="preserve">
<g>
	<path fill="none" d="M25,18H7v2v3v2h18v-2v-3V18z M23,23H9v-1h14V23z M23,21H9v-1h14V21z"/>
	<path fill="none" d="M3,20h2v-2v-2h2h18h2v2v2h2V7H3V20z M25,9h2v2h-2V9z M22,9h2v2h-2V9z M19,9h2v2h-2V9z"/>
	<rect x="7" y="2" fill="none" width="18" height="2"/>
	<path fill="#FFFFFF" d="M29,4h-2V2V0h-2H7H5v2v2H3H0v3v13v3h3h2v4h2h18h2v-2v-2h2h3v-3V7V4H29z M7,2h18v2H7V2z M25,25H7v-2v-3v-2h18v2v3V25z
		 M29,20h-2v-2v-2h-2H7H5v2v2H3V7h26V20z"/>
	<rect fill="#FFFFFF" x="19" y="9" width="2" height="2"/>
	<rect fill="#FFFFFF" x="22" y="9" width="2" height="2"/>
	<rect fill="#FFFFFF" x="25" y="9" width="2" height="2"/>
	<rect fill="#FFFFFF" x="9" y="22" width="14" height="1"/>
	<rect fill="#FFFFFF" x="9" y="20" width="14" height="1"/>
</g>
<g>
</g>
<g>
</g>
<g>
</g>
<g>
</g>
<g>
</g>
<g>
</g>
</svg>
