<?xml version="1.0" encoding="utf-8"?>
<!-- Generator: Adobe Illustrator 16.0.0, SVG Export Plug-In . SVG Version: 6.00 Build 0)  -->
<!DOCTYPE svg PUBLIC "-//W3C//DTD SVG 1.1//EN" "http://www.w3.org/Graphics/SVG/1.1/DTD/svg11.dtd">
<svg version="1.1" id="Layer_2" xmlns="http://www.w3.org/2000/svg" xmlns:xlink="http://www.w3.org/1999/xlink" x="0px" y="0px"
	 width="32px" height="27px" viewBox="0 0 32 27" enable-background="new 0 0 32 27" xml:space="preserve">
<g>
	<path fill="none" d="M3,26h7v-7H3V26z M8,21v3H5v-3H8z"/>
	<rect x="16" y="15" fill="none" width="1" height="2"/>
	<rect x="6" y="12" fill="none" width="1" height="1"/>
	<path fill="none" d="M10,1H3v7h7V1z M5,6V3h3v3H5z"/>
	<path fill="none" d="M21,8h7V1h-7V8z M26,3v3h-3V3H26z"/>
	<path fill="#FFFFFF" d="M11,9V8V1V0h-1H3H2v1v7v1h8H11z M3,8V1h7v7H3z"/>
	<rect fill="#FFFFFF" x="5" y="3" width="3" height="3"/>
	<path fill="#FFFFFF" d="M28,0h-7h-1v1v7v1h8h1V8V1V0H28z M28,8h-7V1h7V8z"/>
	<rect fill="#FFFFFF" x="23" y="3" width="3" height="3"/>
	<path fill="#FFFFFF" d="M3,18H2v1v7v1h8h1v-1v-7v-1h-1H3z M10,26H3v-7h7V26z"/>
	<rect fill="#FFFFFF" x="5" y="21" width="3" height="3"/>
	<polygon fill="#FFFFFF" points="16,2 16,0 13,0 13,2 13,4 15,4 15,2 	"/>
	<polygon fill="#FFFFFF" points="27,13 28,13 28,14 27,14 27,15 28,15 29,15 29,13 29,12 29,11 27,11 	"/>
	<rect fill="#FFFFFF" x="17" y="3" width="2" height="1"/>
	<polygon fill="#FFFFFF" points="16,5 17,5 17,4 15,4 15,5 14,5 14,6 16,6 	"/>
	<rect fill="#FFFFFF" x="13" y="6" width="1" height="3"/>
	<polygon fill="#FFFFFF" points="17,7 16,7 16,8 17,8 18,8 18,7 18,6 19,6 19,5 18,5 17,5 17,6 	"/>
	<rect fill="#FFFFFF" x="15" y="8" width="1" height="1"/>
	<rect fill="#FFFFFF" x="16" y="9" width="2" height="1"/>
	<rect fill="#FFFFFF" x="18" y="10" width="1" height="1"/>
	<polygon fill="#FFFFFF" points="23,12 23,11 23,10 21,10 21,11 19,11 19,12 	"/>
	<polygon fill="#FFFFFF" points="25,14 26,14 26,13 25,13 24,13 24,14 24,15 25,15 	"/>
	<polygon fill="#FFFFFF" points="26,17 25,17 25,18 24,18 24,19 28,19 28,18 26,18 	"/>
	<rect fill="#FFFFFF" x="28" y="17" width="1" height="1"/>
	<polygon fill="#FFFFFF" points="28,22 24,22 24,23 28,23 28,24 29,24 29,23 29,22 29,21 28,21 	"/>
	<rect fill="#FFFFFF" x="23" y="23" width="1" height="1"/>
	<polygon fill="#FFFFFF" points="15,22 12,22 12,23 13,23 13,24 14,24 14,26 13,26 13,27 14,27 16,27 18,27 18,26 16,26 16,24 16,23 15,23 	"/>
	<rect fill="#FFFFFF" x="2" y="10" width="1" height="2"/>
	<polygon fill="#FFFFFF" points="3,16 4,16 4,17 5,17 5,16 6,16 6,15 5,15 5,14 2,14 2,15 3,15 	"/>
	<rect fill="#FFFFFF" x="21" y="26" width="1" height="1"/>
	<rect fill="#FFFFFF" x="27" y="26" width="1" height="1"/>
	<rect fill="#FFFFFF" x="24" y="26" width="1" height="1"/>
	<rect fill="#FFFFFF" x="6" y="10" width="1" height="2"/>
	<rect fill="#FFFFFF" x="21" y="14" width="1" height="1"/>
	<rect fill="#FFFFFF" x="5" y="12" width="1" height="1"/>
	<rect fill="#FFFFFF" x="12" y="17" width="1" height="1"/>
	<rect fill="#FFFFFF" x="18" y="23" width="1" height="1"/>
	<rect fill="#FFFFFF" x="12" y="19" width="1" height="2"/>
	<polygon fill="#FFFFFF" points="20,18 19,18 19,20 16,20 16,18 15,18 15,21 16,21 16,23 17,23 17,21 20,21 20,20 	"/>
	<polygon fill="#FFFFFF" points="23,22 23,21 23,20 22,20 22,18 23,18 23,16 22,16 22,17 21,17 21,21 20,21 20,22 21,22 21,23 22,23 22,22 	"/>
	<rect fill="#FFFFFF" x="20" y="15" width="1" height="2"/>
	<polygon fill="#FFFFFF" points="18,18 18,17 19,17 19,16 18,16 18,14 20,14 20,13 18,13 17,13 17,14 16,14 16,15 17,15 17,17 16,17 16,18 17,18 	
		"/>
	<rect fill="#FFFFFF" x="15" y="15" width="1" height="2"/>
	<polygon fill="#FFFFFF" points="9,13 9,12 8,12 7,12 7,13 6,13 6,14 7,14 7,16 8,16 8,15 9,15 9,14 8,14 8,13 	"/>
	<polygon fill="#FFFFFF" points="10,11 11,11 11,10 10,10 9,10 9,11 9,12 10,12 	"/>
	<polygon fill="#FFFFFF" points="15,12 15,13 16,13 16,12 16,11 15,11 15,10 14,10 14,11 13,11 13,12 14,12 	"/>
	<polygon fill="#FFFFFF" points="10,14 12,14 12,15 10,15 10,16 12,16 13,16 13,15 13,14 15,14 15,13 10,13 	"/>
</g>
<g>
</g>
<g>
</g>
<g>
</g>
<g>
</g>
<g>
</g>
<g>
</g>
</svg>
