<?xml version="1.0" encoding="utf-8"?>
<!-- Generator: Adobe Illustrator 19.1.0, SVG Export Plug-In . SVG Version: 6.00 Build 0)  -->
<svg version="1.1" id="Layer_4" xmlns="http://www.w3.org/2000/svg" xmlns:xlink="http://www.w3.org/1999/xlink" x="0px" y="0px"
	 width="34px" height="29px" viewBox="0 0 34 29" enable-background="new 0 0 34 29" xml:space="preserve">
<rect x="3" fill="#FFFFFF" width="26" height="3"/>
<rect x="27" y="1" fill="#FFFFFF" width="3" height="18"/>
<rect x="2" y="1.188" fill="#FFFFFF" width="3" height="24.812"/>
<rect x="3" y="24" fill="#FFFFFF" width="19" height="3"/>
<rect x="28" y="19" fill="#FFFFFF" width="2" height="1"/>
<rect x="29" y="20" fill="#FFFFFF" width="1" height="1"/>
<rect x="22" y="25" fill="#FFFFFF" width="1" height="2"/>
<rect x="23" y="26" fill="#FFFFFF" width="0.938" height="1"/>
<rect x="20" y="17" fill="#FFFFFF" width="3" height="3"/>
<rect x="21" y="18" fill="#FFFFFF" width="3" height="3"/>
<rect x="22" y="19" fill="#FFFFFF" width="3" height="3"/>
<rect x="23" y="20" fill="#FFFFFF" width="3" height="3"/>
<rect x="24" y="21" fill="#FFFFFF" width="3" height="3"/>
<rect x="25" y="22" fill="#FFFFFF" width="3" height="3"/>
<rect x="26" y="23" fill="#FFFFFF" width="3" height="3"/>
<rect x="27" y="24" fill="#FFFFFF" width="3" height="3"/>
<rect x="28" y="25" fill="#FFFFFF" width="3" height="3"/>
<rect x="29" y="26" fill="#FFFFFF" width="2.969" height="2.969"/>
<rect x="32" y="27" fill="#FFFFFF" width="0.969" height="1.969"/>
<rect x="33" y="28" fill="#FFFFFF" width="1" height="1"/>
<g>
</g>
<g>
</g>
<g>
</g>
<g>
</g>
<g>
</g>
<g>
</g>
</svg>
