<?xml version="1.0" encoding="utf-8"?>
<!-- Generator: Adobe Illustrator 16.0.0, SVG Export Plug-In . SVG Version: 6.00 Build 0)  -->
<!DOCTYPE svg PUBLIC "-//W3C//DTD SVG 1.1//EN" "http://www.w3.org/Graphics/SVG/1.1/DTD/svg11.dtd">
<svg version="1.1" id="Layer_2" xmlns="http://www.w3.org/2000/svg" xmlns:xlink="http://www.w3.org/1999/xlink" x="0px" y="0px"
	 width="32px" height="27px" viewBox="0 0 32 27" enable-background="new 0 0 32 27" xml:space="preserve">
<g>
	<polygon fill="#FFFFFF" points="24,0 24,3 23,3 20,3 19,3 19,0 16,0 16,3 16,7 19,7 20,7 20,17 19,17 19,27 20,27 23,27 24,27 24,17 23,17 23,7 
		24,7 26,7 27,7 27,0 	"/>
	<polygon fill="#FFFFFF" points="6,0 5,0 5,5 6,5 6,15 5,15 5,16 6,16 6,17 5,17 5,27 6,27 8,27 9,27 9,17 8,17 8,16 9,16 9,15 8,15 8,5 9,5 9,0 
		8,0 	"/>
</g>
<g>
</g>
<g>
</g>
<g>
</g>
<g>
</g>
<g>
</g>
<g>
</g>
</svg>
