<?xml version="1.0" encoding="utf-8"?>
<!-- Generator: Adobe Illustrator 16.0.0, SVG Export Plug-In . SVG Version: 6.00 Build 0)  -->
<!DOCTYPE svg PUBLIC "-//W3C//DTD SVG 1.1//EN" "http://www.w3.org/Graphics/SVG/1.1/DTD/svg11.dtd">
<svg version="1.1" id="Layer_2" xmlns="http://www.w3.org/2000/svg" xmlns:xlink="http://www.w3.org/1999/xlink" x="0px" y="0px"
	 width="32px" height="27px" viewBox="0 0 32 27" enable-background="new 0 0 32 27" xml:space="preserve">
<polygon fill="#FFFFFF" points="27,5 26,5 26,4 25,4 25,3 24,3 24,2 23,2 23,1 22,1 22,0 18,0 18,1 19,1 19,2 20,2 20,3 21,3 21,4 9,4 6,4 6,7 
	6,27 9,27 9,7 21,7 21,8 20,8 20,9 19,9 19,10 18,10 18,11 22,11 22,10 23,10 23,9 24,9 24,8 25,8 25,7 26,7 26,6 27,6 "/>
<g>
</g>
<g>
</g>
<g>
</g>
<g>
</g>
<g>
</g>
<g>
</g>
</svg>
