<?xml version="1.0" encoding="utf-8"?>
<!-- Generator: Adobe Illustrator 16.0.0, SVG Export Plug-In . SVG Version: 6.00 Build 0)  -->
<!DOCTYPE svg PUBLIC "-//W3C//DTD SVG 1.1//EN" "http://www.w3.org/Graphics/SVG/1.1/DTD/svg11.dtd">
<svg version="1.1" id="Layer_2" xmlns="http://www.w3.org/2000/svg" xmlns:xlink="http://www.w3.org/1999/xlink" x="0px" y="0px"
	 width="32px" height="27px" viewBox="0 0 32 27" enable-background="new 0 0 32 27" xml:space="preserve">
<g>
	<rect fill="#FFFFFF" x="2" y="22" width="6" height="5"/>
	<rect fill="#FFFFFF" x="9" y="22" width="6" height="5"/>
	<rect fill="#FFFFFF" x="17" y="22" width="6" height="5"/>
	<rect fill="#FFFFFF" x="24" y="22" width="6" height="5"/>
	<rect fill="#FFFFFF" x="8" width="16" height="5"/>
	<rect fill="#FFFFFF" x="2" y="14" width="6" height="5"/>
	<rect fill="#FFFFFF" x="9" y="14" width="6" height="5"/>
	<rect fill="#FFFFFF" x="17" y="14" width="6" height="5"/>
	<rect fill="#FFFFFF" x="24" y="14" width="6" height="5"/>
	<rect fill="#FFFFFF" x="5" y="11" width="1" height="1"/>
	<rect fill="#FFFFFF" x="6" y="10" width="1" height="1"/>
	<rect fill="#FFFFFF" x="7" y="9" width="1" height="1"/>
	<rect fill="#FFFFFF" x="8" y="8" width="1" height="1"/>
	<rect fill="#FFFFFF" x="9" y="7" width="1" height="1"/>
	<rect fill="#FFFFFF" x="22" y="7" width="1" height="1"/>
	<rect fill="#FFFFFF" x="23" y="8" width="1" height="1"/>
	<rect fill="#FFFFFF" x="24" y="9" width="1" height="1"/>
	<rect fill="#FFFFFF" x="25" y="10" width="1" height="1"/>
	<rect fill="#FFFFFF" x="26" y="11" width="1" height="1"/>
	<rect fill="#FFFFFF" x="17" y="7" width="1" height="1"/>
	<rect fill="#FFFFFF" x="18" y="8" width="1" height="1"/>
	<rect fill="#FFFFFF" x="19" y="9" width="1" height="1"/>
	<rect fill="#FFFFFF" x="20" y="10" width="1" height="1"/>
	<rect fill="#FFFFFF" x="21" y="11" width="1" height="1"/>
	<rect fill="#FFFFFF" x="10" y="11" width="1" height="1"/>
	<rect fill="#FFFFFF" x="11" y="10" width="1" height="1"/>
	<rect fill="#FFFFFF" x="12" y="9" width="1" height="1"/>
	<rect fill="#FFFFFF" x="13" y="8" width="1" height="1"/>
	<rect fill="#FFFFFF" x="14" y="7" width="1" height="1"/>
</g>
<g>
</g>
<g>
</g>
<g>
</g>
<g>
</g>
<g>
</g>
<g>
</g>
</svg>
