<?xml version="1.0" encoding="utf-8"?>
<!-- Generator: Adobe Illustrator 16.0.0, SVG Export Plug-In . SVG Version: 6.00 Build 0)  -->
<!DOCTYPE svg PUBLIC "-//W3C//DTD SVG 1.1//EN" "http://www.w3.org/Graphics/SVG/1.1/DTD/svg11.dtd">
<svg version="1.1" id="Layer_2" xmlns="http://www.w3.org/2000/svg" xmlns:xlink="http://www.w3.org/1999/xlink" x="0px" y="0px"
	 width="32px" height="27px" viewBox="0 0 32 27" enable-background="new 0 0 32 27" xml:space="preserve">
<g>
	<rect x="5" y="3" fill="none" width="5" height="5"/>
	<rect x="21" y="19" fill="none" width="5" height="5"/>
	<path fill="#FFFFFF" d="M10,11h3V8V3V0h-3H5H2v3v5v3h3H10z M5,3h5v5H5V3z"/>
	<path fill="#FFFFFF" d="M21,16h-3v3v5v3h3h5h3v-3v-5v-3h-3H21z M26,24h-5v-5h5V24z"/>
	<polygon fill="#FFFFFF" points="28,0 28,1 27,1 27,2 26,2 26,3 25,3 25,4 24,4 24,5 23,5 23,6 22,6 22,7 21,7 21,8 20,8 20,9 19,9 19,10 18,10 
		18,11 17,11 17,12 16,12 16,13 15,13 15,14 14,14 14,15 13,15 13,16 12,16 12,17 11,17 11,18 10,18 10,19 9,19 9,20 8,20 8,21 
		7,21 7,22 6,22 6,23 5,23 5,24 4,24 4,25 3,25 3,26 2,26 2,27 6,27 6,26 7,26 7,25 8,25 8,24 9,24 9,23 10,23 10,22 11,22 11,21 
		12,21 12,20 13,20 13,19 14,19 14,18 15,18 15,17 16,17 16,16 17,16 17,15 18,15 18,14 19,14 19,13 20,13 20,12 21,12 21,11 22,11 
		22,10 23,10 23,9 24,9 24,8 25,8 25,7 26,7 26,6 27,6 27,5 28,5 28,4 29,4 29,3 29,2 29,1 29,0 	"/>
</g>
<g>
</g>
<g>
</g>
<g>
</g>
<g>
</g>
<g>
</g>
<g>
</g>
</svg>
