<?xml version="1.0" encoding="utf-8"?>
<!-- Generator: Adobe Illustrator 16.0.0, SVG Export Plug-In . SVG Version: 6.00 Build 0)  -->
<!DOCTYPE svg PUBLIC "-//W3C//DTD SVG 1.1//EN" "http://www.w3.org/Graphics/SVG/1.1/DTD/svg11.dtd">
<svg version="1.1" id="Layer_2" xmlns="http://www.w3.org/2000/svg" xmlns:xlink="http://www.w3.org/1999/xlink" x="0px" y="0px"
	 width="32px" height="27px" viewBox="0 0 32 27" enable-background="new 0 0 32 27" xml:space="preserve">
<g>
	<rect fill="#FFFFFF" x="5" width="5" height="4"/>
	<rect fill="#FFFFFF" x="13" width="6" height="4"/>
	<rect fill="#FFFFFF" x="22" width="5" height="4"/>
	<polygon fill="#FFFFFF" points="22,6 10,6 10,17 12,17 12,27 20,27 20,17 22,17 	"/>
	<polygon fill="#FFFFFF" points="30,6 24,6 24,16 24,17 24,18 22,18 22,27 24,27 26,27 28,27 28,17 30,17 	"/>
	<polygon fill="#FFFFFF" points="8,17 8,6 2,6 2,17 4,17 4,27 5,27 8,27 10,27 10,18 8,18 	"/>
</g>
<g>
</g>
<g>
</g>
<g>
</g>
<g>
</g>
<g>
</g>
<g>
</g>
</svg>
