<?xml version="1.0" encoding="utf-8"?>
<!-- Generator: Adobe Illustrator 16.0.0, SVG Export Plug-In . SVG Version: 6.00 Build 0)  -->
<!DOCTYPE svg PUBLIC "-//W3C//DTD SVG 1.1//EN" "http://www.w3.org/Graphics/SVG/1.1/DTD/svg11.dtd">
<svg version="1.1" id="Layer_1" xmlns="http://www.w3.org/2000/svg" xmlns:xlink="http://www.w3.org/1999/xlink" x="0px" y="0px"
	 width="18px" height="17px" viewBox="0 0 18 17" enable-background="new 0 0 18 17" xml:space="preserve">
<g>
	<polygon fill="none" points="10,7 10,6 10,2 7,2 7,6 7,7 6,7 2,7 2,10 6,10 7,10 7,11 7,15 10,15 10,11 10,10 11,10 15,10 15,7 
		11,7 	"/>
	<path fill="#31FF00" d="M15,6h-4V2V1h-1H7H6v1v4H2H1v1v3v1h1h4v4v1h1h3h1v-1v-4h4h1v-1V7V6H15z M15,10h-4h-1v1v4H7v-4v-1H6H2V7h4h1
		V6V2h3v4v1h1h4V10z"/>
</g>
<g>
</g>
<g>
</g>
<g>
</g>
<g>
</g>
<g>
</g>
<g>
</g>
</svg>
