<?xml version="1.0" encoding="utf-8"?>
<!-- Generator: Adobe Illustrator 16.0.0, SVG Export Plug-In . SVG Version: 6.00 Build 0)  -->
<!DOCTYPE svg PUBLIC "-//W3C//DTD SVG 1.1//EN" "http://www.w3.org/Graphics/SVG/1.1/DTD/svg11.dtd">
<svg version="1.1" id="Layer_1" xmlns="http://www.w3.org/2000/svg" xmlns:xlink="http://www.w3.org/1999/xlink" x="0px" y="0px"
	 width="18px" height="17px" viewBox="0 0 18 17" enable-background="new 0 0 18 17" xml:space="preserve">
<g>
	<polygon fill="none" points="14,12 13,12 13,13 12,13 12,12 11,12 11,11 10,11 10,10 9,10 9,9 8,9 8,8 7,8 7,7 6,7 6,8 5,8 5,9 
		4,9 4,10 3,10 3,11 2,11 2,15 16,15 16,12 15,12 15,11 14,11 	"/>
	<path fill="none" d="M2,10h1V9h1V8h1V7h1V6h1v1h1v1h1v1h1v1h1v1h1v1h1v-1h1v-1h1v1h1V4H2V10z M14,5h1v1h-1V5z"/>
	<path fill="#00BFFF" d="M16,3H2H1v1v11v1h15h1v-1V4V3H16z M16,11h-1v1h1v3H2v-4h1v-1H2V4h14V11z"/>
	<rect x="14" y="5" fill="#00BFFF" width="1" height="1"/>
	<rect x="3" y="9" fill="#00BFFF" width="1" height="1"/>
	<rect x="4" y="8" fill="#00BFFF" width="1" height="1"/>
	<rect x="5" y="7" fill="#00BFFF" width="1" height="1"/>
	<rect x="6" y="6" fill="#00BFFF" width="1" height="1"/>
	<rect x="7" y="7" fill="#00BFFF" width="1" height="1"/>
	<rect x="8" y="8" fill="#00BFFF" width="1" height="1"/>
	<rect x="9" y="9" fill="#00BFFF" width="1" height="1"/>
	<rect x="10" y="10" fill="#00BFFF" width="1" height="1"/>
	<rect x="11" y="11" fill="#00BFFF" width="1" height="1"/>
	<rect x="12" y="12" fill="#00BFFF" width="1" height="1"/>
	<rect x="13" y="11" fill="#00BFFF" width="1" height="1"/>
	<rect x="14" y="10" fill="#00BFFF" width="1" height="1"/>
</g>
<g>
</g>
<g>
</g>
<g>
</g>
<g>
</g>
<g>
</g>
<g>
</g>
</svg>
