<?xml version="1.0" encoding="utf-8"?>
<!-- Generator: Adobe Illustrator 16.0.0, SVG Export Plug-In . SVG Version: 6.00 Build 0)  -->
<!DOCTYPE svg PUBLIC "-//W3C//DTD SVG 1.1//EN" "http://www.w3.org/Graphics/SVG/1.1/DTD/svg11.dtd">
<svg version="1.1" id="Layer_1" xmlns="http://www.w3.org/2000/svg" xmlns:xlink="http://www.w3.org/1999/xlink" x="0px" y="0px"
	 width="18px" height="17px" viewBox="0 0 18 17" enable-background="new 0 0 18 17" xml:space="preserve">
<g>
	<path fill="none" d="M2,15h14V2H2V15z M7,8V7H6V6h1v1h1v1h1h1V7h1V6h1v1h-1v1h-1v1h1v1h1v1h-1v-1h-1V9H9H8v1H7v1H6v-1h1V9h1V8H7z"
		/>
	<path fill="#00BFFF" d="M16,1H2H1v1v13v1h15h1v-1V2V1H16z M16,15H2V2h14V15z"/>
	<rect x="6" y="6" fill="#00BFFF" width="1" height="1"/>
	<rect x="7" y="7" fill="#00BFFF" width="1" height="1"/>
	<polygon fill="#00BFFF" points="9,9 10,9 10,8 9,8 8,8 8,9 	"/>
	<rect x="7" y="9" fill="#00BFFF" width="1" height="1"/>
	<rect x="6" y="10" fill="#00BFFF" width="1" height="1"/>
	<rect x="10" y="7" fill="#00BFFF" width="1" height="1"/>
	<rect x="11" y="6" fill="#00BFFF" width="1" height="1"/>
	<rect x="10" y="9" fill="#00BFFF" width="1" height="1"/>
	<rect x="11" y="10" fill="#00BFFF" width="1" height="1"/>
</g>
<g>
</g>
<g>
</g>
<g>
</g>
<g>
</g>
<g>
</g>
<g>
</g>
</svg>
