<?xml version="1.0" encoding="utf-8"?>
<!-- Generator: Adobe Illustrator 16.0.0, SVG Export Plug-In . SVG Version: 6.00 Build 0)  -->
<!DOCTYPE svg PUBLIC "-//W3C//DTD SVG 1.1//EN" "http://www.w3.org/Graphics/SVG/1.1/DTD/svg11.dtd">
<svg version="1.1" id="Layer_1" xmlns="http://www.w3.org/2000/svg" xmlns:xlink="http://www.w3.org/1999/xlink" x="0px" y="0px"
	 width="18px" height="17px" viewBox="0 0 18 17" enable-background="new 0 0 18 17" xml:space="preserve">
<g>
	<path fill="none" d="M2,15h9v-4v-1h1h4V2H2V15z M3,4h12v1H3V4z M3,6h12v1H3V6z M3,8h12v1H3V8z M3,10h7v1H3V10z M10,12v1H3v-1H10z"
		/>
	<polygon fill="none" points="12,11 12,15 13,15 13,14 14,14 14,13 15,13 15,12 16,12 16,11 	"/>
	<path fill="#00BFFF" d="M16,1H2H1v1v13v1h1h9h1h1v-1h-1v-4h4v1h1v-1v-1V2V1H16z M16,10h-4h-1v1v4H2V2h14V10z"/>
	<rect x="3" y="4" fill="#00BFFF" width="12" height="1"/>
	<rect x="3" y="6" fill="#00BFFF" width="12" height="1"/>
	<rect x="3" y="8" fill="#00BFFF" width="12" height="1"/>
	<rect x="3" y="10" fill="#00BFFF" width="7" height="1"/>
	<rect x="3" y="12" fill="#00BFFF" width="7" height="1"/>
	<rect x="13" y="14" fill="#00BFFF" width="1" height="1"/>
	<rect x="14" y="13" fill="#00BFFF" width="1" height="1"/>
	<rect x="15" y="12" fill="#00BFFF" width="1" height="1"/>
</g>
<g>
</g>
<g>
</g>
<g>
</g>
<g>
</g>
<g>
</g>
<g>
</g>
</svg>
