<?xml version="1.0" encoding="utf-8"?>
<!-- Generator: Adobe Illustrator 16.0.0, SVG Export Plug-In . SVG Version: 6.00 Build 0)  -->
<!DOCTYPE svg PUBLIC "-//W3C//DTD SVG 1.1//EN" "http://www.w3.org/Graphics/SVG/1.1/DTD/svg11.dtd">
<svg version="1.1" id="Layer_1" xmlns="http://www.w3.org/2000/svg" xmlns:xlink="http://www.w3.org/1999/xlink" x="0px" y="0px"
	 width="18px" height="17px" viewBox="0 0 18 17" enable-background="new 0 0 18 17" xml:space="preserve">
<g>
	<polygon fill="none" points="5,4 6,4 6,3 7,3 7,4 8,4 8,5 10,5 10,4 11,4 11,3 12,3 12,4 13,4 13,5 15,5 15,3 15,2 3,2 3,3 3,5 
		5,5 	"/>
	<path fill="none" d="M15,6h-2V5h-1V4h-1v1h-1v1H8V5H7V4H6v1H5v1H3V5H2v10h14V5h-1V6z M6,8h4v1H6V8z M12,11H6v-1h6V11z"/>
	<path fill="#00BFFF" d="M16,3V2V1h-1H3H2v1v1H1v2v10v1h1h14h1v-1V5V3H16z M16,15H2V5h1V3V2h12v1v2h1V15z"/>
	<rect x="3" y="5" fill="#00BFFF" width="2" height="1"/>
	<rect x="8" y="5" fill="#00BFFF" width="2" height="1"/>
	<rect x="13" y="5" fill="#00BFFF" width="2" height="1"/>
	<rect x="6" y="8" fill="#00BFFF" width="4" height="1"/>
	<rect x="6" y="10" fill="#00BFFF" width="6" height="1"/>
	<rect x="5" y="4" fill="#00BFFF" width="1" height="1"/>
	<rect x="6" y="3" fill="#00BFFF" width="1" height="1"/>
	<rect x="7" y="4" fill="#00BFFF" width="1" height="1"/>
	<rect x="10" y="4" fill="#00BFFF" width="1" height="1"/>
	<rect x="11" y="3" fill="#00BFFF" width="1" height="1"/>
	<rect x="12" y="4" fill="#00BFFF" width="1" height="1"/>
</g>
<g>
</g>
<g>
</g>
<g>
</g>
<g>
</g>
<g>
</g>
<g>
</g>
</svg>
