<?xml version="1.0" encoding="utf-8"?>
<!-- Generator: Adobe Illustrator 16.0.0, SVG Export Plug-In . SVG Version: 6.00 Build 0)  -->
<!DOCTYPE svg PUBLIC "-//W3C//DTD SVG 1.1//EN" "http://www.w3.org/Graphics/SVG/1.1/DTD/svg11.dtd">
<svg version="1.1" id="Layer_1" xmlns="http://www.w3.org/2000/svg" xmlns:xlink="http://www.w3.org/1999/xlink" x="0px" y="0px"
	 width="18px" height="17px" viewBox="0 0 18 17" enable-background="new 0 0 18 17" xml:space="preserve">
<g>
	<path fill="none" d="M2,9v6h6V9H2z M7,11H6v2h1v1H6v-1H4v1H3v-1h1v-2H3v-1h1v1h2v-1h1V11z"/>
	<path fill="none" d="M9,8h3v1H9v4h7V2H2v6h6H9z M13,3h2v2h-2V3z M6,6h4v1H6V6z"/>
	<polygon fill="#00BFFF" points="16,1 2,1 1,1 1,2 1,8 2,8 2,2 16,2 16,13 9,13 9,14 16,14 17,14 17,13 17,2 17,1 	"/>
	<rect x="6" y="6" fill="#00BFFF" width="4" height="1"/>
	<rect x="9" y="8" fill="#00BFFF" width="3" height="1"/>
	<rect x="13" y="3" fill="#00BFFF" width="2" height="2"/>
	<path fill="#FF0000" d="M9,9V8H8H2H1v1v6v1h1h7v-1v-1v-1V9z M2,15V9h6v6H2z"/>
	<rect x="3" y="13" fill="#FF0000" width="1" height="1"/>
	<rect x="6" y="13" fill="#FF0000" width="1" height="1"/>
	<rect x="3" y="10" fill="#FF0000" width="1" height="1"/>
	<rect x="6" y="10" fill="#FF0000" width="1" height="1"/>
	<rect x="4" y="11" fill="#FF0000" width="2" height="2"/>
</g>
<g>
</g>
<g>
</g>
<g>
</g>
<g>
</g>
<g>
</g>
<g>
</g>
</svg>
