<?xml version="1.0" encoding="utf-8"?>
<!-- Generator: Adobe Illustrator 16.0.0, SVG Export Plug-In . SVG Version: 6.00 Build 0)  -->
<!DOCTYPE svg PUBLIC "-//W3C//DTD SVG 1.1//EN" "http://www.w3.org/Graphics/SVG/1.1/DTD/svg11.dtd">
<svg version="1.1" id="Layer_1" xmlns="http://www.w3.org/2000/svg" xmlns:xlink="http://www.w3.org/1999/xlink" x="0px" y="0px"
	 viewBox="0 0 18 17" enable-background="new 0 0 18 17" xml:space="preserve">
<g>
	<polygon fill="none" points="14,13 13,13 13,12 12,12 12,11 11,11 11,12 10,12 10,13 8,13 8,12 7,12 7,11 6,11 6,12 5,12 5,13
		4,13 4,14 3,14 3,15 15,15 15,14 14,14 	"/>
	<polygon fill="none" points="4,13 4,12 5,12 5,11 6,11 6,10 5,10 5,9 4,9 4,8 3,8 3,7 2,7 2,14 3,14 3,13 	"/>
	<polygon fill="none" points="4,8 5,8 5,9 6,9 6,10 7,10 7,11 8,11 8,12 10,12 10,11 11,11 11,10 12,10 12,9 13,9 13,8 14,8 14,7
		15,7 15,4 3,4 3,7 4,7 	"/>
	<polygon fill="none" points="15,7 15,8 14,8 14,9 13,9 13,10 12,10 12,11 13,11 13,12 14,12 14,13 15,13 15,14 16,14 16,7 	"/>
	<rect x="8" y="2" fill="none" width="2" height="1"/>
	<rect x="8" y="1" fill="#00BFFF" width="2" height="1"/>
	<path fill="#00BFFF" d="M16,6V4V3h-1h-4V2h-1v1H8V2H7v1H3H2v1v2H1v8v1v1h1h1h12h1h1v-1v-1V6H16z M15,14v1H3v-1H2V7h1V4h12v3h1v7H15
		z"/>
	<rect x="8" y="12" fill="#00BFFF" width="2" height="1"/>
	<rect x="3" y="7" fill="#00BFFF" width="1" height="1"/>
	<rect x="4" y="8" fill="#00BFFF" width="1" height="1"/>
	<rect x="5" y="9" fill="#00BFFF" width="1" height="1"/>
	<rect x="6" y="10" fill="#00BFFF" width="1" height="1"/>
	<rect x="7" y="11" fill="#00BFFF" width="1" height="1"/>
	<rect x="5" y="11" fill="#00BFFF" width="1" height="1"/>
	<rect x="4" y="12" fill="#00BFFF" width="1" height="1"/>
	<rect x="3" y="13" fill="#00BFFF" width="1" height="1"/>
	<rect x="10" y="11" fill="#00BFFF" width="1" height="1"/>
	<rect x="11" y="10" fill="#00BFFF" width="1" height="1"/>
	<rect x="12" y="9" fill="#00BFFF" width="1" height="1"/>
	<rect x="13" y="8" fill="#00BFFF" width="1" height="1"/>
	<rect x="14" y="7" fill="#00BFFF" width="1" height="1"/>
	<rect x="12" y="11" fill="#00BFFF" width="1" height="1"/>
	<rect x="13" y="12" fill="#00BFFF" width="1" height="1"/>
	<rect x="14" y="13" fill="#00BFFF" width="1" height="1"/>
</g>
<g>
</g>
<g>
</g>
<g>
</g>
<g>
</g>
<g>
</g>
<g>
</g>
</svg>
