<?xml version="1.0" encoding="utf-8"?>
<!-- Generator: Adobe Illustrator 16.0.0, SVG Export Plug-In . SVG Version: 6.00 Build 0)  -->
<!DOCTYPE svg PUBLIC "-//W3C//DTD SVG 1.1//EN" "http://www.w3.org/Graphics/SVG/1.1/DTD/svg11.dtd">
<svg version="1.1" id="Layer_1" xmlns="http://www.w3.org/2000/svg" xmlns:xlink="http://www.w3.org/1999/xlink" x="0px" y="0px"
	 width="18px" height="17px" viewBox="0 0 18 17" enable-background="new 0 0 18 17" xml:space="preserve">
<g>
	<polygon fill="none" points="12,3 12,4 11,4 7,4 6,4 6,3 6,2 2,2 2,7 4,7 5,7 5,8 5,15 13,15 13,8 13,7 14,7 16,7 16,2 12,2 	"/>
	<path fill="#00BFFF" d="M16,1h-4h-1v1v1H7V2V1H6H2H1v1v5v1h1h2v7v1h1h8h1v-1V8h2h1V7V2V1H16z M16,7h-2h-1v1v7H5V8V7H4H2V2h4v1v1h1
		h4h1V3V2h4V7z"/>
</g>
<g>
</g>
<g>
</g>
<g>
</g>
<g>
</g>
<g>
</g>
<g>
</g>
</svg>
