<?xml version="1.0" encoding="utf-8"?>
<!-- Generator: Adobe Illustrator 16.0.0, SVG Export Plug-In . SVG Version: 6.00 Build 0)  -->
<!DOCTYPE svg PUBLIC "-//W3C//DTD SVG 1.1//EN" "http://www.w3.org/Graphics/SVG/1.1/DTD/svg11.dtd">
<svg version="1.1" id="Layer_1" xmlns="http://www.w3.org/2000/svg" xmlns:xlink="http://www.w3.org/1999/xlink" x="0px" y="0px"
	 width="18px" height="17px" viewBox="0 0 18 17" enable-background="new 0 0 18 17" xml:space="preserve">
<g>
	<polygon fill="none" points="4,6 5,6 5,4 5,3 6,3 12,3 13,3 13,4 13,5 13,6 12,6 9,6 9,10 10,10 10,8 10,7 11,7 14,7 14,2 4,2 	"/>
	<rect x="9" y="14" fill="none" width="1" height="1"/>
	<path fill="#00BFFF" d="M14,1H4H3v1v4v1h1h1h1V6V4h6v1H9H8v1v4v1h2h1v-1V8h3h1V7V2V1H14z M14,7h-3h-1v1v2H9V6h3h1V5V4V3h-1H6H5v1v2
		H4V2h10V7z"/>
	<path fill="#00BFFF" d="M9,13H8v1v1v1h1h1h1v-1v-1v-1h-1H9z M10,15H9v-1h1V15z"/>
</g>
<g>
</g>
<g>
</g>
<g>
</g>
<g>
</g>
<g>
</g>
<g>
</g>
</svg>
