<?xml version="1.0" encoding="utf-8"?>
<!-- Generator: Adobe Illustrator 16.0.0, SVG Export Plug-In . SVG Version: 6.00 Build 0)  -->
<!DOCTYPE svg PUBLIC "-//W3C//DTD SVG 1.1//EN" "http://www.w3.org/Graphics/SVG/1.1/DTD/svg11.dtd">
<svg version="1.1" id="Layer_1" xmlns="http://www.w3.org/2000/svg" xmlns:xlink="http://www.w3.org/1999/xlink" x="0px" y="0px"
	 width="18px" height="17px" viewBox="0 0 18 17" enable-background="new 0 0 18 17" xml:space="preserve">
<g>
	<polygon fill="none" points="13,13 13,12 14,12 16,12 16,2 2,2 2,12 11,12 11,13 12,13 12,14 13,14 	"/>
	<polygon fill="#00BFFF" points="16,1 2,1 1,1 1,2 1,12 1,13 2,13 11,13 11,12 2,12 2,2 16,2 16,12 14,12 13,12 13,13 13,14 12,14 
		12,15 13,15 13,16 14,16 14,13 16,13 17,13 17,12 17,2 17,1 	"/>
	<rect x="11" y="13" fill="#00BFFF" width="1" height="1"/>
</g>
<g>
</g>
<g>
</g>
<g>
</g>
<g>
</g>
<g>
</g>
<g>
</g>
</svg>
