<?xml version="1.0" encoding="utf-8"?>
<!-- Generator: Adobe Illustrator 16.0.0, SVG Export Plug-In . SVG Version: 6.00 Build 0)  -->
<!DOCTYPE svg PUBLIC "-//W3C//DTD SVG 1.1//EN" "http://www.w3.org/Graphics/SVG/1.1/DTD/svg11.dtd">
<svg version="1.1" id="Layer_1" xmlns="http://www.w3.org/2000/svg" xmlns:xlink="http://www.w3.org/1999/xlink" x="0px" y="0px"
	 width="18px" height="17px" viewBox="0 0 18 17" enable-background="new 0 0 18 17" xml:space="preserve">
<g>
	<rect x="11" y="9" fill="none" width="1" height="1"/>
	<path fill="none" d="M2,15h14V4H2V15z M13,9v1v1h-1h-1h-1v-1V9V8h1h1h1V9z M5,6h8v1H5V6z M5,8h4v1H5V8z M5,10h4v1H5V10z M13,12v1H5
		v-1H13z"/>
	<rect x="2" y="2" fill="none" width="14" height="1"/>
	<path fill="#00BFFF" d="M16,1H2H1v1v1v1v11v1h1h14h1v-1V4V3V2V1H16z M16,15H2V4h14V15z M16,3H2V2h14V3z"/>
	<rect x="5" y="6" fill="#00BFFF" width="8" height="1"/>
	<rect x="5" y="8" fill="#00BFFF" width="4" height="1"/>
	<rect x="5" y="10" fill="#00BFFF" width="4" height="1"/>
	<rect x="5" y="12" fill="#00BFFF" width="8" height="1"/>
	<path fill="#00BFFF" d="M11,8h-1v1v1v1h1h1h1v-1V9V8h-1H11z M12,10h-1V9h1V10z"/>
</g>
<g>
</g>
<g>
</g>
<g>
</g>
<g>
</g>
<g>
</g>
<g>
</g>
</svg>
