<?xml version="1.0" encoding="utf-8"?>
<!-- Generator: Adobe Illustrator 16.0.0, SVG Export Plug-In . SVG Version: 6.00 Build 0)  -->
<!DOCTYPE svg PUBLIC "-//W3C//DTD SVG 1.1//EN" "http://www.w3.org/Graphics/SVG/1.1/DTD/svg11.dtd">
<svg version="1.1" id="Layer_1" xmlns="http://www.w3.org/2000/svg" xmlns:xlink="http://www.w3.org/1999/xlink" x="0px" y="0px"
	 width="18px" height="17px" viewBox="0 0 18 17" enable-background="new 0 0 18 17" xml:space="preserve">
<g>
	<polygon fill="#00BFFF" points="2,2 16,2 16,13 17,13 17,2 17,1 16,1 2,1 1,1 1,2 1,15 1,16 2,16 13,16 13,15 2,15 	"/>
	<rect x="12" y="11" fill="#00BFFF" width="1" height="1"/>
	<rect x="13" y="12" fill="#00BFFF" width="1" height="1"/>
	<rect x="14" y="13" fill="#00BFFF" width="1" height="1"/>
	<rect x="15" y="14" fill="#00BFFF" width="1" height="1"/>
	<rect x="17" y="16" fill="#00BFFF" width="1" height="1"/>
	<rect x="16" y="15" fill="#00BFFF" width="1" height="1"/>
</g>
<g>
</g>
<g>
</g>
<g>
</g>
<g>
</g>
<g>
</g>
<g>
</g>
</svg>
