<?xml version="1.0" encoding="utf-8"?>
<!-- Generator: Adobe Illustrator 16.0.0, SVG Export Plug-In . SVG Version: 6.00 Build 0)  -->
<!DOCTYPE svg PUBLIC "-//W3C//DTD SVG 1.1//EN" "http://www.w3.org/Graphics/SVG/1.1/DTD/svg11.dtd">
<svg version="1.1" id="Layer_1" xmlns="http://www.w3.org/2000/svg" xmlns:xlink="http://www.w3.org/1999/xlink" x="0px" y="0px"
	 width="18px" height="17px" viewBox="0 0 18 17" enable-background="new 0 0 18 17" xml:space="preserve">
<g>
	<polygon fill="#00BFFF" points="16,2 16,1 15,1 3,1 2,1 2,2 2,6 3,6 3,2 15,2 15,7 14,7 14,8 15,8 15,9 16,9 16,8 17,8 17,7 16,7 	
		"/>
	<rect x="13" y="6" fill="#00BFFF" width="1" height="1"/>
	<rect x="17" y="6" fill="#00BFFF" width="1" height="1"/>
	<rect y="10" fill="#00BFFF" width="1" height="1"/>
	<rect x="4" y="10" fill="#00BFFF" width="1" height="1"/>
	<polygon fill="#00BFFF" points="15,15 3,15 3,10 4,10 4,9 3,9 3,8 2,8 2,9 1,9 1,10 2,10 2,15 2,16 3,16 15,16 16,16 16,15 16,11 
		15,11 	"/>
</g>
<g>
</g>
<g>
</g>
<g>
</g>
<g>
</g>
<g>
</g>
<g>
</g>
</svg>
