<?xml version="1.0" encoding="utf-8"?>
<!-- Generator: Adobe Illustrator 16.0.0, SVG Export Plug-In . SVG Version: 6.00 Build 0)  -->
<!DOCTYPE svg PUBLIC "-//W3C//DTD SVG 1.1//EN" "http://www.w3.org/Graphics/SVG/1.1/DTD/svg11.dtd">
<svg version="1.1" id="Layer_1" xmlns="http://www.w3.org/2000/svg" xmlns:xlink="http://www.w3.org/1999/xlink" x="0px" y="0px"
	 width="18px" height="17px" viewBox="0 0 18 17" enable-background="new 0 0 18 17" xml:space="preserve">
<g>
	<path fill="none" d="M13,8V2H4v6H13z M5,3h7v1H5V3z M12,5v1H5V5H12z"/>
	<polygon fill="none" points="6,11 6,15 9,15 9,12 11,12 11,15 12,15 12,11 	"/>
	<polygon fill="none" points="14,8 14,9 4,9 3,9 3,8 3,2 2,2 2,15 5,15 5,11 5,10 6,10 12,10 13,10 13,11 13,15 14,15 14,14 15,14 
		15,2 14,2 	"/>
	<path fill="#00BFFF" d="M15,1h-1h-1H4H3H2H1v1v13v1h1h12h1v-1h1v-1V2V1H15z M13,2v6H4V2H13z M11,15v-3H9v3H6v-4h6v4H11z M15,14h-1
		v1h-1v-4v-1h-1H6H5v1v4H2V2h1v6v1h1h10V8V2h1V14z"/>
	<rect x="5" y="3" fill="#00BFFF" width="7" height="1"/>
	<rect x="5" y="5" fill="#00BFFF" width="7" height="1"/>
</g>
<g>
</g>
<g>
</g>
<g>
</g>
<g>
</g>
<g>
</g>
<g>
</g>
</svg>
