<?xml version="1.0" encoding="utf-8"?>
<!-- Generator: Adobe Illustrator 16.0.0, SVG Export Plug-In . SVG Version: 6.00 Build 0)  -->
<!DOCTYPE svg PUBLIC "-//W3C//DTD SVG 1.1//EN" "http://www.w3.org/Graphics/SVG/1.1/DTD/svg11.dtd">
<svg version="1.1" id="Layer_1" xmlns="http://www.w3.org/2000/svg" xmlns:xlink="http://www.w3.org/1999/xlink" x="0px" y="0px"
	 width="18px" height="17px" viewBox="0 0 18 17" enable-background="new 0 0 18 17" xml:space="preserve">
<g>
	<rect x="10" y="12" fill="none" width="2" height="1"/>
	<rect x="10" y="8" fill="none" width="4" height="1"/>
	<polygon fill="none" points="10,11 12,11 13,11 14,11 14,10 10,10 	"/>
	<rect x="10" y="6" fill="none" width="4" height="1"/>
	<rect x="10" y="4" fill="none" width="4" height="1"/>
	<rect x="7" y="12" fill="none" width="2" height="1"/>
	<rect x="7" y="6" fill="none" width="2" height="1"/>
	<rect x="7" y="8" fill="none" width="2" height="1"/>
	<rect x="7" y="10" fill="none" width="2" height="1"/>
	<path fill="none" d="M2,15h14V2H2V15z M3,11v-1V9V8V7V6V5V3h1h2h1h2h1h5v1v1v1v1v1v1v1v1v1h-1h-1v1v1h-1h-2H9H7H6H4H3v-2V11z"/>
	<rect x="4" y="12" fill="none" width="2" height="1"/>
	<rect x="4" y="10" fill="none" width="2" height="1"/>
	<rect x="7" y="4" fill="none" width="2" height="1"/>
	<rect x="4" y="4" fill="none" width="2" height="1"/>
	<rect x="4" y="6" fill="none" width="2" height="1"/>
	<rect x="4" y="8" fill="none" width="2" height="1"/>
	<path fill="#00BFFF" d="M16,1H2H1v1v13v1h1h14h1v-1V2V1H16z M16,15H2V2h14V15z"/>
	<path fill="#00BFFF" d="M4,14h2h1h2h1h2h1v-1v-1h1h1v-1v-1V9V8V7V6V5V4V3h-5H9H7H6H4H3v2v1v1v1v1v1v1v1v2H4z M7,13v-1h2v1H7z M9,8
		v1H7V8H9z M7,7V6h2v1H7z M9,10v1H7v-1H9z M12,13h-2v-1h2V13z M14,11h-1h-1h-2v-1h4V11z M14,9h-4V8h4V9z M14,7h-4V6h4V7z M14,4v1h-4
		V4H14z M9,4v1H7V4H9z M4,4h2v1H4V4z M4,6h2v1H4V6z M4,8h2v1H4V8z M4,10h2v1H4V10z M6,12v1H4v-1H6z"/>
</g>
<g>
</g>
<g>
</g>
<g>
</g>
<g>
</g>
<g>
</g>
<g>
</g>
</svg>
