<?xml version="1.0" encoding="utf-8"?>
<!-- Generator: Adobe Illustrator 16.0.0, SVG Export Plug-In . SVG Version: 6.00 Build 0)  -->
<!DOCTYPE svg PUBLIC "-//W3C//DTD SVG 1.1//EN" "http://www.w3.org/Graphics/SVG/1.1/DTD/svg11.dtd">
<svg version="1.1" id="Layer_1" xmlns="http://www.w3.org/2000/svg" xmlns:xlink="http://www.w3.org/1999/xlink" x="0px" y="0px"
	 width="18px" height="17px" viewBox="0 0 18 17" enable-background="new 0 0 18 17" xml:space="preserve">
<g>
	<rect x="2" y="6" fill="none" width="3" height="9"/>
	<polygon fill="none" points="11,3 11,2 6,2 6,5 6,6 6,15 11,15 11,4 	"/>
	<rect x="12" y="4" fill="none" width="4" height="11"/>
	<path fill="#00BFFF" d="M16,3h-4V2V1h-1H6H5v1v3H2H1v1v9v1h1h3h1h5h1h4h1v-1V4V3H16z M2,15V6h3v9H2z M6,15V6V5V2h5v1v1v11H6z
		 M16,15h-4V4h4V15z"/>
</g>
<g>
</g>
<g>
</g>
<g>
</g>
<g>
</g>
<g>
</g>
<g>
</g>
</svg>
