<?xml version="1.0" encoding="utf-8"?>
<!-- Generator: Adobe Illustrator 16.0.0, SVG Export Plug-In . SVG Version: 6.00 Build 0)  -->
<!DOCTYPE svg PUBLIC "-//W3C//DTD SVG 1.1//EN" "http://www.w3.org/Graphics/SVG/1.1/DTD/svg11.dtd">
<svg version="1.1" id="Layer_2" xmlns="http://www.w3.org/2000/svg" xmlns:xlink="http://www.w3.org/1999/xlink" x="0px" y="0px"
	 width="32px" height="27px" viewBox="0 0 32 27" enable-background="new 0 0 32 27" xml:space="preserve">
<g>
	<polygon fill="none" points="5,18 5,19 6,19 6,20 7,20 7,21 8,21 8,22 9,22 9,23 10,23 10,22 11,22 11,21 12,21 12,20 13,20 13,19 
		14,19 14,18 12,18 12,12 7,12 7,18 	"/>
	<polygon fill="none" points="15,11 15,12 15,16 17,16 17,15 17,11 	"/>
	<polygon fill="none" points="27,9 27,8 26,8 26,7 25,7 25,6 24,6 24,5 23,5 23,4 22,4 22,5 21,5 21,6 20,6 20,7 19,7 19,8 18,8 
		18,9 20,9 20,11 20,15 25,15 25,9 	"/>
	<path d="M30,7h-1V6h-1V5h-1V4h-1V3h-1V2h-1V1h-1V0h-1v1h-1v1h-1v1h-1v1h-1v1h-1v1h-1v1h-1v2h-3H7H4v3v4H2v4h1v1h1v1h1v1h1v1h1v1h1
		v1h1v1h1v-1h1v-1h1v-1h1v-1h1v-1h1v-1h1v-1h1v-2h3h5h3v-3v-4h2V7z M12,12v6h2v1h-1v1h-1v1h-1v1h-1v1H9v-1H8v-1H7v-1H6v-1H5v-1h2v-6
		H12z M17,16h-2v-4v-1h2v4V16z M20,15v-4V9h-2V8h1V7h1V6h1V5h1V4h1v1h1v1h1v1h1v1h1v1h-2v6H20z"/>
</g>
<g>
</g>
<g>
</g>
<g>
</g>
<g>
</g>
<g>
</g>
<g>
</g>
</svg>
