<?xml version="1.0" encoding="utf-8"?>
<!-- Generator: Adobe Illustrator 16.0.0, SVG Export Plug-In . SVG Version: 6.00 Build 0)  -->
<!DOCTYPE svg PUBLIC "-//W3C//DTD SVG 1.1//EN" "http://www.w3.org/Graphics/SVG/1.1/DTD/svg11.dtd">
<svg version="1.1" id="Layer_2" xmlns="http://www.w3.org/2000/svg" xmlns:xlink="http://www.w3.org/1999/xlink" x="0px" y="0px"
	 width="32px" height="27px" viewBox="0 0 32 27" enable-background="new 0 0 32 27" xml:space="preserve">
<g>
	<rect width="2" height="27"/>
	<polygon points="31,0 30,0 30,22 30,23 31,23 31,27 32,27 32,22 32,0 	"/>
	<rect x="4" y="25" width="2" height="2"/>
	<rect x="7" y="25" width="1" height="2"/>
	<rect x="11" y="25" width="2" height="2"/>
	<rect x="9" y="25" width="1" height="2"/>
	<rect x="19" y="25" width="1" height="2"/>
	<rect x="21" y="25" width="1" height="2"/>
	<rect x="23" y="25" width="1" height="2"/>
	<rect x="25" y="25" width="1" height="2"/>
	<rect x="27" y="25" width="2" height="2"/>
	<rect x="3" width="1" height="23"/>
	<rect x="5" width="1" height="23"/>
	<rect x="7" width="2" height="23"/>
	<rect x="10" width="1" height="23"/>
	<rect x="12" width="1" height="23"/>
	<rect x="19" width="1" height="23"/>
	<rect x="14" width="2" height="26"/>
	<rect x="17" width="1" height="26"/>
	<rect x="21" width="1" height="23"/>
	<rect x="23" width="3" height="23"/>
	<rect x="27" width="2" height="23"/>
</g>
<g>
</g>
<g>
</g>
<g>
</g>
<g>
</g>
<g>
</g>
<g>
</g>
</svg>
