<?xml version="1.0" encoding="utf-8"?>
<!-- Generator: Adobe Illustrator 16.0.0, SVG Export Plug-In . SVG Version: 6.00 Build 0)  -->
<!DOCTYPE svg PUBLIC "-//W3C//DTD SVG 1.1//EN" "http://www.w3.org/Graphics/SVG/1.1/DTD/svg11.dtd">
<svg version="1.1" id="Layer_2" xmlns="http://www.w3.org/2000/svg" xmlns:xlink="http://www.w3.org/1999/xlink" x="0px" y="0px"
	 width="32px" height="27px" viewBox="0 0 32 27" enable-background="new 0 0 32 27" xml:space="preserve">
<g>
	<path fill="none" d="M27,8h-1V7h-1V6h-1V5h-1V4h-1V3H5v21h22V9V8z M10,22H7v-3h3V22z M10,17H7v-3h3V17z M10,12H7V9h3V12z M25,22H13
		v-1h12V22z M25,20H13v-1h12V20z M25,18H13v-1h12V18z M25,16H13v-1h12V16z M25,14H13v-1h12V14z M25,12H13v-1h12V12z M25,10H13V9h12
		V10z"/>
	<path d="M29,7V6h-1V5h-1V4h-1V3h-1V2h-1V1h-1V0H5H2v3v21v3h3h22h3v-3V7H29z M5,24V3h17v1h1v1h1v1h1v1h1v1h1v1v15H5z"/>
	<rect x="7" y="9" width="3" height="3"/>
	<rect x="7" y="14" width="3" height="3"/>
	<rect x="7" y="19" width="3" height="3"/>
	<rect x="13" y="21" width="12" height="1"/>
	<rect x="13" y="19" width="12" height="1"/>
	<rect x="13" y="17" width="12" height="1"/>
	<rect x="13" y="15" width="12" height="1"/>
	<rect x="13" y="13" width="12" height="1"/>
	<rect x="13" y="11" width="12" height="1"/>
	<rect x="13" y="9" width="12" height="1"/>
</g>
<g>
</g>
<g>
</g>
<g>
</g>
<g>
</g>
<g>
</g>
<g>
</g>
</svg>
