<?xml version="1.0" encoding="utf-8"?>
<!-- Generator: Adobe Illustrator 19.1.0, SVG Export Plug-In . SVG Version: 6.00 Build 0)  -->
<svg version="1.1" id="Layer_2" xmlns="http://www.w3.org/2000/svg" xmlns:xlink="http://www.w3.org/1999/xlink" x="0px" y="0px"
	 width="43px" height="27px" viewBox="0 0 43 27" enable-background="new 0 0 43 27" xml:space="preserve">
<rect x="6" y="24" width="30.958" height="3"/>
<rect x="37" y="24" width="2" height="2"/>
<rect x="4" y="24" width="2" height="2"/>
<rect x="2" y="23" width="3" height="2"/>
<rect x="1" y="22" width="3" height="1"/>
<rect y="16" width="3" height="6"/>
<rect x="1" y="21" width="2" height="1"/>
<rect x="38" y="23" width="3" height="2"/>
<rect x="39" y="22" width="3" height="1"/>
<rect x="40" y="21" width="2" height="1"/>
<rect x="40" y="16" width="3" height="6"/>
<rect x="24" width="6" height="3"/>
<rect x="30" y="1" width="2" height="3"/>
<rect x="32" y="2" width="2" height="3"/>
<rect x="33" y="3" width="2" height="3"/>
<rect x="34" y="4" width="2" height="4"/>
<rect x="35" y="6" width="2" height="7"/>
<rect x="36" y="9" width="2" height="5"/>
<rect x="38" y="12" width="2" height="3"/>
<rect x="39" y="13" width="2" height="3"/>
<rect x="41" y="14" width="1" height="2"/>
<rect x="22" y="1" width="2" height="2"/>
<rect x="20" y="2" width="3" height="2"/>
<rect x="19" y="3" width="3" height="2"/>
<rect x="18" y="4" width="3" height="2"/>
<rect x="12" y="6" width="6" height="3"/>
<rect x="19" y="6" width="1" height="1"/>
<rect x="11" y="7" width="3" height="2"/>
<rect x="10" y="8" width="2" height="3"/>
<rect x="10" y="9" width="2" height="3"/>
<rect x="5" y="11" width="5" height="2"/>
<rect x="3" y="12" width="4" height="2"/>
<rect x="2" y="13" width="3" height="2"/>
<rect x="1" y="14" width="3" height="2"/>
<rect x="18" y="6" width="1" height="2"/>
<rect x="17" y="5" width="1" height="1"/>
<rect x="12" y="9" width="1" height="1"/>
<rect x="7" y="10" width="3" height="1"/>
<rect x="34" y="8" width="1" height="1"/>
<rect x="23.083" width="0.917" height="1"/>
<rect x="10" y="12" width="1" height="1"/>
<rect y="15" width="1" height="1"/>
<rect x="42" y="15.003" width="1" height="0.997"/>
<g>
</g>
<g>
</g>
<g>
</g>
<g>
</g>
<g>
</g>
<g>
</g>
</svg>
