<?xml version="1.0" encoding="utf-8"?>
<!-- Generator: Adobe Illustrator 16.0.0, SVG Export Plug-In . SVG Version: 6.00 Build 0)  -->
<!DOCTYPE svg PUBLIC "-//W3C//DTD SVG 1.1//EN" "http://www.w3.org/Graphics/SVG/1.1/DTD/svg11.dtd">
<svg version="1.1" id="Layer_2" xmlns="http://www.w3.org/2000/svg" xmlns:xlink="http://www.w3.org/1999/xlink" x="0px" y="0px"
	 width="32px" height="27px" viewBox="0 0 32 27" enable-background="new 0 0 32 27" xml:space="preserve">
<g>
	<rect x="3" y="3" fill="none" width="26" height="1"/>
	<path fill="none" d="M3,24h26V7H3V24z M19,18h1v-1h1v-1h1v-1h-1v-1h-1v-1h-1v-1h1v1h1v1h1v1h1v1h-1v1h-1v1h-1v1h-1V18z M10,15v-1h1
		v-1h1v-1h1v1h-1v1h-1v1H10v1h1v1h1v1h1v1h-1v-1h-1v-1h-1v-1H9v-1H10z"/>
	<path d="M29,0H3H0v3v1v3v17v3h3h26h3v-3V7V4V3V0H29z M29,24H3V7h26V24z M29,4H3V3h26V4z"/>
	<rect x="12" y="12" width="1" height="1"/>
	<rect x="11" y="13" width="1" height="1"/>
	<rect x="10" y="14" width="1" height="1"/>
	<rect x="9" y="15" width="1" height="1"/>
	<rect x="10" y="16" width="1" height="1"/>
	<rect x="11" y="17" width="1" height="1"/>
	<rect x="12" y="18" width="1" height="1"/>
	<rect x="19" y="18" width="1" height="1"/>
	<rect x="20" y="17" width="1" height="1"/>
	<rect x="21" y="16" width="1" height="1"/>
	<rect x="22" y="15" width="1" height="1"/>
	<rect x="21" y="14" width="1" height="1"/>
	<rect x="20" y="13" width="1" height="1"/>
	<rect x="19" y="12" width="1" height="1"/>
</g>
<g>
</g>
<g>
</g>
<g>
</g>
<g>
</g>
<g>
</g>
<g>
</g>
</svg>
