<?xml version="1.0" encoding="utf-8"?>
<!-- Generator: Adobe Illustrator 16.0.0, SVG Export Plug-In . SVG Version: 6.00 Build 0)  -->
<!DOCTYPE svg PUBLIC "-//W3C//DTD SVG 1.1//EN" "http://www.w3.org/Graphics/SVG/1.1/DTD/svg11.dtd">
<svg version="1.1" id="Layer_2" xmlns="http://www.w3.org/2000/svg" xmlns:xlink="http://www.w3.org/1999/xlink" x="0px" y="0px"
	 width="32px" height="27px" viewBox="0 0 32 27" enable-background="new 0 0 32 27" xml:space="preserve">
<g>
	<path fill="none" d="M25,5h2v2h-2h-2h-2V5h2V3h-6v2h2v2h-2h-2h-2V5h2V3H9v2h2v2H9H7H5V5h2V3H3v21h26V3h-4V5z M14,20H5v-9h9V20z
		 M17,13h6v1h-6V13z M27,20H17v-1h10V20z M27,18H17v-1h10V18z M27,16H17v-1h10V16z"/>
	<path d="M29,0h-4h-2h-6h-2H9H7H3H0v3v21v3h3h26h3v-3V3V0H29z M29,24H3V3h4v2H5v2h2h2h2V5H9V3h6v2h-2v2h2h2h2V5h-2V3h6v2h-2v2h2h2h2
		V5h-2V3h4V24z"/>
	<rect x="5" y="11" width="9" height="9"/>
	<rect x="17" y="13" width="6" height="1"/>
	<rect x="17" y="15" width="10" height="1"/>
	<rect x="17" y="17" width="10" height="1"/>
	<rect x="17" y="19" width="10" height="1"/>
</g>
<g>
</g>
<g>
</g>
<g>
</g>
<g>
</g>
<g>
</g>
<g>
</g>
</svg>
