<?xml version="1.0" encoding="utf-8"?>
<!-- Generator: Adobe Illustrator 16.0.0, SVG Export Plug-In . SVG Version: 6.00 Build 0)  -->
<!DOCTYPE svg PUBLIC "-//W3C//DTD SVG 1.1//EN" "http://www.w3.org/Graphics/SVG/1.1/DTD/svg11.dtd">
<svg version="1.1" id="Layer_2" xmlns="http://www.w3.org/2000/svg" xmlns:xlink="http://www.w3.org/1999/xlink" x="0px" y="0px"
	 width="32px" height="27px" viewBox="0 0 32 27" enable-background="new 0 0 32 27" xml:space="preserve">
<g>
	<path fill="none" d="M5,24h22V11H5V24z M25,18h1v5h-1V18z M23,18h1v5h-1V18z M21,18h1v5h-1V18z M19,18h1v5h-1V18z"/>
	<path d="M29,2h-9v3h9v3h-2H5H3V5h8V2H3H0v3v3v3h2v13v3h3h22h3v-3V11h2V8V5V2H29z M27,24H5V11h22V24z"/>
	<rect x="19" y="18" width="1" height="5"/>
	<rect x="21" y="18" width="1" height="5"/>
	<rect x="23" y="18" width="1" height="5"/>
	<rect x="25" y="18" width="1" height="5"/>
	<polygon points="14,7 15,7 16,7 17,7 17,4 19,4 19,3 18,3 18,2 17,2 17,1 16,1 16,0 15,0 15,1 14,1 14,2 13,2 13,3 12,3 12,4 14,4 
			"/>
</g>
<g>
</g>
<g>
</g>
<g>
</g>
<g>
</g>
<g>
</g>
<g>
</g>
</svg>
