<?xml version="1.0" encoding="utf-8"?>
<!-- Generator: Adobe Illustrator 18.1.0, SVG Export Plug-In . SVG Version: 6.00 Build 0)  -->
<!DOCTYPE svg PUBLIC "-//W3C//DTD SVG 1.1//EN" "http://www.w3.org/Graphics/SVG/1.1/DTD/svg11.dtd">
<svg version="1.1" id="Layer_2" xmlns="http://www.w3.org/2000/svg" xmlns:xlink="http://www.w3.org/1999/xlink" x="0px" y="0px"
	 width="32px" height="27px" viewBox="0 0 32 27" enable-background="new 0 0 32 27" xml:space="preserve">
<rect x="2" y="6" width="28" height="3"/>
<rect width="3" height="27"/>
<rect y="24" width="32" height="3"/>
<rect x="29" width="3" height="27"/>
<rect width="5" height="3"/>
<rect x="27" width="5" height="3"/>
<rect x="6" width="3" height="5"/>
<rect x="23" width="3" height="5"/>
<rect x="10" width="12" height="3"/>
<rect x="6" y="12" width="2" height="2"/>
<rect x="9" y="12" width="2" height="2"/>
<rect x="12" y="12" width="2" height="2"/>
<rect x="15" y="12" width="2" height="2"/>
<rect x="18" y="12" width="2" height="2"/>
<rect x="21" y="12" width="2" height="2"/>
<rect x="24" y="12" width="2" height="2"/>
<rect x="6" y="15" width="2" height="2"/>
<rect x="9" y="15" width="2" height="2"/>
<rect x="12" y="15" width="2" height="2"/>
<rect x="15" y="15" width="2" height="2"/>
<rect x="18" y="15" width="2" height="2"/>
<rect x="21" y="15" width="2" height="2"/>
<rect x="24" y="15" width="2" height="2"/>
<rect x="6" y="18" width="2" height="2"/>
<rect x="9" y="18" width="2" height="2"/>
<rect x="12" y="18" width="2" height="2"/>
<rect x="15" y="18" width="2" height="2"/>
<rect x="18" y="18" width="2" height="2"/>
<rect x="21" y="18" width="2" height="2"/>
<rect x="24" y="18" width="2" height="2"/>
</svg>
