<?xml version="1.0" encoding="utf-8"?>
<!-- Generator: Adobe Illustrator 16.0.0, SVG Export Plug-In . SVG Version: 6.00 Build 0)  -->
<!DOCTYPE svg PUBLIC "-//W3C//DTD SVG 1.1//EN" "http://www.w3.org/Graphics/SVG/1.1/DTD/svg11.dtd">
<svg version="1.1" id="Layer_1" xmlns="http://www.w3.org/2000/svg" xmlns:xlink="http://www.w3.org/1999/xlink" x="0px" y="0px"
	 width="32px" height="27px" viewBox="0 0 32 27" enable-background="new 0 0 32 27" xml:space="preserve">
<g>
	<polygon fill="none" points="27,17 28,17 28,15 27,15 27,14 26,14 26,13 25,13 25,12 24,12 24,11 23,11 23,10 22,10 22,9 21,9 
		21,8 20,8 20,7 19,7 19,6 18,6 18,5 17,5 17,4 15,4 15,5 14,5 14,6 13,6 13,7 12,7 12,8 11,8 11,9 10,9 10,10 9,10 9,11 8,11 8,12 
		7,12 7,13 6,13 6,14 5,14 5,15 4,15 4,17 6,17 6,18 6,19 6,24 13,24 13,20 19,20 19,24 26,24 26,17 	"/>
	<path d="M30,14v-1h-1v-1h-1v-1h-1v-1h-1V9h-1V8h-1V7h-1V6h-1V5h-1V4h-1V3h-1V2h-1V1h-1V0h-2v1h-1v1h-1v1h-1v1h-1v1h-1v1H9v1H8v1H7
		v1H6v1H5v1H4v1H3v1H2v1H1v3v1v1h2v5v3h10h6h10v-1v-2v-5h2v-2v-3H30z M19,24v-4h-6v4H6v-5v-1v-1H4v-2h1v-1h1v-1h1v-1h1v-1h1v-1h1V9
		h1V8h1V7h1V6h1V5h1V4h2v1h1v1h1v1h1v1h1v1h1v1h1v1h1v1h1v1h1v1h1v1h1v2h-1h-1v7H19z"/>
</g>
<g>
</g>
<g>
</g>
<g>
</g>
<g>
</g>
<g>
</g>
<g>
</g>
</svg>
