<?xml version="1.0" encoding="utf-8"?>
<!-- Generator: Adobe Illustrator 16.0.0, SVG Export Plug-In . SVG Version: 6.00 Build 0)  -->
<!DOCTYPE svg PUBLIC "-//W3C//DTD SVG 1.1//EN" "http://www.w3.org/Graphics/SVG/1.1/DTD/svg11.dtd">
<svg version="1.1" id="Layer_2" xmlns="http://www.w3.org/2000/svg" xmlns:xlink="http://www.w3.org/1999/xlink" x="0px" y="0px"
	 width="32px" height="27px" viewBox="0 0 32 27" enable-background="new 0 0 32 27" xml:space="preserve">
<g>
	<polygon fill="none" points="22,6 10,6 10,3 3,3 3,6 5,6 8,6 8,9 8,24 24,24 24,9 24,6 27,6 29,6 29,3 22,3 	"/>
	<path d="M29,0H19v3h-6V0H3H0v3v3v3h3h2v15v3h3h16h3v-3V9h2h3V6V3V0H29z M29,6h-2h-3v3v15H8V9V6H5H3V3h7v3h12V3h7V6z"/>
</g>
<g>
</g>
<g>
</g>
<g>
</g>
<g>
</g>
<g>
</g>
<g>
</g>
</svg>
