<?xml version="1.0" encoding="utf-8"?>
<!-- Generator: Adobe Illustrator 16.0.0, SVG Export Plug-In . SVG Version: 6.00 Build 0)  -->
<!DOCTYPE svg PUBLIC "-//W3C//DTD SVG 1.1//EN" "http://www.w3.org/Graphics/SVG/1.1/DTD/svg11.dtd">
<svg version="1.1" id="Layer_2" xmlns="http://www.w3.org/2000/svg" xmlns:xlink="http://www.w3.org/1999/xlink" x="0px" y="0px"
	 width="32px" height="27px" viewBox="0 0 32 27" enable-background="new 0 0 32 27" xml:space="preserve">
<g>
	<polygon points="15,19 14,19 14,20 13,20 13,21 12,21 12,22 11,22 11,23 10,23 10,24 7,24 7,23 6,23 6,22 5,22 5,19 6,19 6,18 
		7,18 7,17 8,17 8,16 9,16 9,15 10,15 10,14 11,14 11,13 6,13 6,14 5,14 5,15 4,15 4,16 3,16 3,17 2,17 2,24 3,24 3,25 4,25 4,26 
		5,26 5,27 12,27 12,26 13,26 13,25 14,25 14,24 15,24 15,23 16,23 16,22 16,20 16,19 16,18 15,18 	"/>
	<polygon points="29,3 28,3 28,2 27,2 27,1 26,1 26,0 20,0 19,0 19,1 18,1 18,2 17,2 17,3 16,3 16,4 15,4 15,9 16,9 16,8 17,8 17,7 
		18,7 18,6 19,6 19,5 20,5 20,4 21,4 21,3 24,3 24,4 25,4 25,5 26,5 26,8 25,8 25,9 24,9 24,10 23,10 23,11 22,11 22,12 21,12 
		21,13 20,13 20,14 21,14 22,14 25,14 25,13 26,13 26,12 27,12 27,11 28,11 28,10 29,10 	"/>
	<polygon points="19,12 20,12 20,11 21,11 21,10 22,10 22,7 19,7 19,8 18,8 18,9 17,9 17,10 16,10 16,11 15,11 15,12 14,12 14,13 
		13,13 13,14 12,14 12,15 11,15 11,16 10,16 10,17 9,17 9,20 12,20 12,19 13,19 13,18 14,18 14,17 15,17 15,16 16,16 16,15 17,15 
		17,14 18,14 18,13 19,13 	"/>
</g>
<g>
</g>
<g>
</g>
<g>
</g>
<g>
</g>
<g>
</g>
<g>
</g>
</svg>
