<?xml version="1.0" encoding="utf-8"?>
<!-- Generator: Adobe Illustrator 16.0.0, SVG Export Plug-In . SVG Version: 6.00 Build 0)  -->
<!DOCTYPE svg PUBLIC "-//W3C//DTD SVG 1.1//EN" "http://www.w3.org/Graphics/SVG/1.1/DTD/svg11.dtd">
<svg version="1.1" id="Layer_2" xmlns="http://www.w3.org/2000/svg" xmlns:xlink="http://www.w3.org/1999/xlink" x="0px" y="0px"
	 width="32px" height="27px" viewBox="0 0 32 27" enable-background="new 0 0 32 27" xml:space="preserve">
<g>
	<path fill="none" d="M3,20h16h2h1v1h1v1h1v-2h5V3H3V20z M6,8h14v1H6V8z M6,11h19v1H6V11z M17,14v1H6v-1H17z"/>
	<path d="M29,0H3H0v3v17v2v1h19h1h1v1h1v1h1v1h1v1h3v-4h5v-1v-2V3V0H29z M29,20h-5v2h-1v-1h-1v-1h-1h-2H3V3h26V20z"/>
	<rect x="6" y="14" width="11" height="1"/>
	<rect x="6" y="11" width="19" height="1"/>
	<rect x="6" y="8" width="14" height="1"/>
</g>
<g>
</g>
<g>
</g>
<g>
</g>
<g>
</g>
<g>
</g>
<g>
</g>
</svg>
