<?xml version="1.0" encoding="utf-8"?>
<!-- Generator: Adobe Illustrator 16.0.0, SVG Export Plug-In . SVG Version: 6.00 Build 0)  -->
<!DOCTYPE svg PUBLIC "-//W3C//DTD SVG 1.1//EN" "http://www.w3.org/Graphics/SVG/1.1/DTD/svg11.dtd">
<svg version="1.1" id="Layer_2" xmlns="http://www.w3.org/2000/svg" xmlns:xlink="http://www.w3.org/1999/xlink" x="0px" y="0px"
	 width="32px" height="27px" viewBox="0 0 32 27" enable-background="new 0 0 32 27" xml:space="preserve">
<g>
	<rect x="12" y="12" fill="none" width="3" height="12"/>
	<rect x="6" y="12" fill="none" width="3" height="12"/>
	<rect x="24" y="12" fill="none" width="3" height="12"/>
	<rect x="18" y="12" fill="none" width="3" height="12"/>
	<path d="M26,9V8h-1V7h-1V6h-1V5h-1V4h-1V3h-1V0h-3v3h1v1h1v1h1v1h1v1h1v1h1v1H10V8h1V7h1V6h1V5h1V4h1V3h1V0h-3v3h-1v1h-1v1h-1v1H9
		v1H8v1H7v1H1v3h2v12v3h3h3h3h3h3h3h3h3h2h1V12h2V9H26z M6,24V12h3v12H6z M12,24V12h3v12H12z M18,24V12h3v12H18z M27,24h-3V12h3V24z
		"/>
</g>
<g>
</g>
<g>
</g>
<g>
</g>
<g>
</g>
<g>
</g>
<g>
</g>
</svg>
