<?xml version="1.0" encoding="utf-8"?>
<!-- Generator: Adobe Illustrator 19.2.0, SVG Export Plug-In . SVG Version: 6.00 Build 0)  -->
<svg version="1.1" id="Layer_3" xmlns="http://www.w3.org/2000/svg" xmlns:xlink="http://www.w3.org/1999/xlink" x="0px" y="0px"
	 width="32px" height="27px" viewBox="0 0 32 27" enable-background="new 0 0 32 27" xml:space="preserve">
<rect x="12" fill="#000000" width="9" height="5"/>
<rect x="16" y="5" fill="#000000" width="1" height="4"/>
<rect x="5" y="9" fill="#000000" width="16" height="1"/>
<rect x="5" y="10" fill="#000000" width="1" height="4"/>
<rect x="20" y="10" fill="#000000" width="1" height="4"/>
<rect x="17" y="14" fill="#000000" width="7" height="1"/>
<rect x="2" y="14" fill="#000000" width="7" height="1"/>
<rect x="2" y="15" fill="#000000" width="1" height="3"/>
<rect x="8" y="15" fill="#000000" width="1" height="3"/>
<rect x="17" y="15" fill="#000000" width="1" height="3"/>
<rect x="23" y="15" fill="#000000" width="1" height="3"/>
<rect x="2" y="18" fill="#000000" width="7" height="1"/>
<rect x="17" y="18" fill="#000000" width="7" height="1"/>
<rect x="14" y="16" fill="#000000" width="3" height="1"/>
<rect x="24" y="16" fill="#000000" width="3" height="1"/>
<rect x="14" y="17" fill="#000000" width="1" height="5"/>
<rect x="26" y="17" fill="#000000" width="1" height="5"/>
<rect x="5" y="19" fill="#000000" width="1" height="3"/>
<rect x="2" y="22" fill="#000000" width="7" height="1"/>
<rect x="11" y="22" fill="#000000" width="7" height="1"/>
<rect x="23" y="22" fill="#000000" width="7" height="1"/>
<rect x="2" y="23" fill="#000000" width="1" height="3"/>
<rect x="8" y="23" fill="#000000" width="1" height="3"/>
<rect x="11" y="23" fill="#000000" width="1" height="3"/>
<rect x="17" y="23" fill="#000000" width="1" height="3"/>
<rect x="23" y="23" fill="#000000" width="1" height="3"/>
<rect x="29" y="23" fill="#000000" width="1" height="3"/>
<rect x="2" y="26" fill="#000000" width="7" height="1"/>
<rect x="11" y="26" fill="#000000" width="7" height="1"/>
<rect x="23" y="26" fill="#000000" width="7" height="1"/>
</svg>
