<?xml version="1.0" encoding="utf-8"?>
<!-- Generator: Adobe Illustrator 16.0.0, SVG Export Plug-In . SVG Version: 6.00 Build 0)  -->
<!DOCTYPE svg PUBLIC "-//W3C//DTD SVG 1.1//EN" "http://www.w3.org/Graphics/SVG/1.1/DTD/svg11.dtd">
<svg version="1.1" id="Layer_2" xmlns="http://www.w3.org/2000/svg" xmlns:xlink="http://www.w3.org/1999/xlink" x="0px" y="0px"
	 width="32px" height="27px" viewBox="0 0 32 27" enable-background="new 0 0 32 27" xml:space="preserve">
<g>
	<polygon fill="none" points="25,16 25,14 28,14 28,13 25,13 25,11 24,11 24,17 28,17 28,16 	"/>
	<polygon fill="none" points="6,14 6,15 6,17 7,17 7,14 9,14 9,13 7,13 7,12 9,12 9,11 6,11 	"/>
	<path d="M5,7H0v4v3v3v4h7h2h1h4V11V7H9H5z M9,12H7v1h2v1H7v3H6v-2v-1v-3h3V12z"/>
	<path d="M28,7h-4h-6v4v6v4h6h4h4v-4v-6V7H28z M24,17v-6h1v2h3v1h-3v2h3v1H24z"/>
</g>
<g>
</g>
<g>
</g>
<g>
</g>
<g>
</g>
<g>
</g>
<g>
</g>
</svg>
