<?xml version="1.0" encoding="utf-8"?>
<!-- Generator: Adobe Illustrator 16.0.0, SVG Export Plug-In . SVG Version: 6.00 Build 0)  -->
<!DOCTYPE svg PUBLIC "-//W3C//DTD SVG 1.1//EN" "http://www.w3.org/Graphics/SVG/1.1/DTD/svg11.dtd">
<svg version="1.1" id="Layer_2" xmlns="http://www.w3.org/2000/svg" xmlns:xlink="http://www.w3.org/1999/xlink" x="0px" y="0px"
	 width="32px" height="27px" viewBox="0 0 32 27" enable-background="new 0 0 32 27" xml:space="preserve">
<g>
	<rect x="14" y="3" fill="none" width="4" height="21"/>
	<rect x="5" y="11" fill="none" width="2" height="13"/>
	<rect x="25" y="7" fill="none" width="2" height="17"/>
	<path d="M5,8H2v3v13v3h3h2h3v-3V11V8H7H5z M7,24H5V11h2V24z"/>
	<path d="M27,4h-2h-3v3v17v3h3h2h3v-3V7V4H27z M27,24h-2V7h2V24z"/>
	<path d="M14,0h-3v3v21v3h3h4h3v-3V3V0h-3H14z M18,24h-4V3h4V24z"/>
</g>
<g>
</g>
<g>
</g>
<g>
</g>
<g>
</g>
<g>
</g>
<g>
</g>
</svg>
