<?xml version="1.0" encoding="utf-8"?>
<!-- Generator: Adobe Illustrator 16.0.0, SVG Export Plug-In . SVG Version: 6.00 Build 0)  -->
<!DOCTYPE svg PUBLIC "-//W3C//DTD SVG 1.1//EN" "http://www.w3.org/Graphics/SVG/1.1/DTD/svg11.dtd">
<svg version="1.1" id="Layer_2" xmlns="http://www.w3.org/2000/svg" xmlns:xlink="http://www.w3.org/1999/xlink" x="0px" y="0px"
	 width="32px" height="27px" viewBox="0 0 32 27" enable-background="new 0 0 32 27" xml:space="preserve">
<g>
	<rect x="14" y="3" fill="none" width="4" height="1"/>
	<polygon fill="none" points="21,7 18,7 14,7 11,7 11,5 8,5 8,24 24,24 24,5 21,5 	"/>
	<path d="M24,2h-3V0h-3h-4h-3v2H5v1v2v22h1h2h16h3v-3V5V2H24z M18,3v1h-4V3H18z M24,24H8V5h3v2h3h4h3V5h3V24z"/>
</g>
<g>
</g>
<g>
</g>
<g>
</g>
<g>
</g>
<g>
</g>
<g>
</g>
</svg>
