<?xml version="1.0" encoding="utf-8"?>
<!-- Generator: Adobe Illustrator 16.0.0, SVG Export Plug-In . SVG Version: 6.00 Build 0)  -->
<!DOCTYPE svg PUBLIC "-//W3C//DTD SVG 1.1//EN" "http://www.w3.org/Graphics/SVG/1.1/DTD/svg11.dtd">
<svg version="1.1" id="Layer_2" xmlns="http://www.w3.org/2000/svg" xmlns:xlink="http://www.w3.org/1999/xlink" x="0px" y="0px"
	 width="32px" height="27px" viewBox="0 0 32 27" enable-background="new 0 0 32 27" xml:space="preserve">
<g>
	<polygon points="29,7 28,7 28,8 27,8 27,24 5,24 5,3 22,3 22,2 23,2 23,1 24,1 24,0 5,0 2,0 2,1 2,2 2,3 2,24 2,27 5,27 27,27 
		30,27 30,24 30,9 30,8 30,7 30,6 29,6 	"/>
	<polygon points="28,0 28,1 27,1 27,2 26,2 26,3 25,3 25,4 24,4 24,5 23,5 23,6 22,6 22,7 21,7 21,8 20,8 20,9 19,9 19,10 18,10 
		18,11 17,11 17,12 16,12 16,13 15,13 15,14 14,14 14,15 13,15 13,14 12,14 12,13 11,13 11,12 9,12 9,14 10,14 10,15 11,15 11,16 
		12,16 12,17 13,17 13,18 14,18 14,17 15,17 15,16 16,16 16,15 17,15 17,14 18,14 18,13 19,13 19,12 20,12 20,11 21,11 21,10 22,10 
		22,9 23,9 23,8 24,8 24,7 25,7 25,6 26,6 26,5 27,5 27,4 28,4 28,3 29,3 29,2 30,2 30,0 	"/>
</g>
<g>
</g>
<g>
</g>
<g>
</g>
<g>
</g>
<g>
</g>
<g>
</g>
</svg>
